<svg width="100" height="100" viewBox="0 0 100 100" fill="none" xmlns="http://www.w3.org/2000/svg">
<rect x="2.34375" y="2.34375" width="95.3125" height="95.3125" rx="47.6562" fill="url(#paint0_linear_3248_2108)"/>
<rect x="2.34375" y="2.34375" width="95.3125" height="95.3125" rx="47.6562" stroke="white" stroke-width="4.6875"/>
<path fill-rule="evenodd" clip-rule="evenodd" d="M53.9611 0.826446C53.9611 0.370012 53.591 3.23476e-08 53.1346 7.22503e-08L46.4476 6.56845e-07C45.9912 6.96748e-07 45.6212 0.370013 45.6212 0.826447V15.8533C45.6212 16.3097 45.2512 16.6798 44.7947 16.6798H37.6236C37.4044 16.6798 37.1942 16.7668 37.0392 16.9218L26.6815 27.2795C26.5265 27.4345 26.4395 27.6447 26.4395 27.8639V47.5176C26.4395 48.2488 27.3192 48.6198 27.8428 48.1094L34.5298 41.5911C34.6893 41.4356 34.7793 41.2222 34.7793 40.9993L34.7793 30.3659C34.7793 30.1467 34.8664 29.9365 35.0214 29.7815L39.5412 25.2617C39.6962 25.1067 39.9064 25.0196 40.1256 25.0196L59.4933 25.0196C59.6905 25.0196 59.8813 25.0902 60.0311 25.2186L65.3483 29.7762C65.5315 29.9332 65.6369 30.1624 65.6369 30.4037V32.1161C65.6369 32.5725 66.0069 32.9425 66.4633 32.9425H69.4645C69.6837 32.9425 69.8939 32.8555 70.0489 32.7005L73.3177 29.4316C73.4727 29.2766 73.5598 29.0664 73.5598 28.8473V27.0299C73.5598 26.8108 73.4727 26.6005 73.3177 26.4456L63.377 16.5048C63.222 16.3498 63.0118 16.2628 62.7926 16.2628H54.7875C54.3311 16.2628 53.9611 15.8928 53.9611 15.4363L53.9611 0.826446ZM66.4749 42.8775C66.0185 42.8775 65.6485 43.2475 65.6485 43.704V45.758C65.6485 45.9754 65.5628 46.1841 65.41 46.3387L59.4731 52.3493C59.3178 52.5065 59.106 52.595 58.8851 52.595H41.9325C41.7013 52.595 41.4807 52.6918 41.3242 52.8619L37.0825 57.4736C36.9422 57.6262 36.8643 57.8259 36.8643 58.0331V58.8037C36.8643 59.2601 37.2343 59.6301 37.6908 59.6301L62.7926 59.6301C63.0118 59.6301 63.222 59.5431 63.377 59.3881L73.3177 49.4473C73.4727 49.2924 73.5598 49.0822 73.5598 48.863V46.9728C73.5598 46.7536 73.4727 46.5434 73.3177 46.3884L70.0489 43.1196C69.8939 42.9646 69.6837 42.8775 69.4645 42.8775H66.4749Z" fill="white"/>
<path d="M36.6222 43.12C36.7772 42.965 36.9874 42.8779 37.2066 42.8779L62.3201 42.8779C62.7765 42.8779 63.1465 43.2479 63.1465 43.7044V44.7071C63.1465 44.9245 63.0608 45.1331 62.908 45.2878L58.4277 49.8238C58.2724 49.9809 58.0606 50.0694 57.8397 50.0694H40.8344C40.6032 50.0694 40.3826 50.1662 40.2261 50.3364L34.5805 56.4744C34.4402 56.6269 34.3623 56.8266 34.3623 57.0339V58.8041C34.3623 59.2605 33.9923 59.6305 33.5359 59.6305H30.5347C30.3155 59.6305 30.1053 59.5435 29.9503 59.3885L26.6815 56.1197C26.5265 55.9647 26.4395 55.7545 26.4395 55.5353V53.6451C26.4395 53.4259 26.5265 53.2157 26.6815 53.0607L36.6222 43.12Z" fill="white"/>
<path fill-rule="evenodd" clip-rule="evenodd" d="M65.462 60.841C65.307 60.996 65.2199 61.2062 65.2199 61.4254V69.6336C65.2199 69.8528 65.1328 70.063 64.9778 70.218L60.458 74.7378C60.303 74.8928 60.0928 74.9799 59.8736 74.9799H40.506C40.3087 74.9799 40.1179 74.9093 39.9681 74.7809L34.6509 70.2233C34.4678 70.0663 34.3623 69.8371 34.3623 69.5958V67.8834C34.3623 67.427 33.9923 67.057 33.5359 67.057H30.5347C30.3155 67.057 30.1053 67.1441 29.9503 67.2991L26.6815 70.5679C26.5265 70.7229 26.4395 70.9331 26.4395 71.1523V72.9696C26.4395 73.1888 26.5265 73.399 26.6815 73.554L36.6222 83.4947C36.7772 83.6497 36.9874 83.7368 37.2066 83.7368H45.2117C45.6682 83.7368 46.0382 84.1068 46.0382 84.5632V99.1731C46.0382 99.6295 46.4082 99.9995 46.8646 99.9995H53.5516C54.008 99.9995 54.3781 99.6295 54.3781 99.1731V84.1462C54.3781 83.6898 54.7481 83.3198 55.2045 83.3198H62.3756C62.5948 83.3198 62.805 83.2327 62.96 83.0777L73.3177 72.72C73.4727 72.565 73.5598 72.3548 73.5598 72.1356V54.7384C73.5598 54.0021 72.6696 53.6334 72.149 54.154L65.462 60.841Z" fill="white"/>
<defs>
<linearGradient id="paint0_linear_3248_2108" x1="20.2148" y1="14.6484" x2="82.4219" y2="87.5" gradientUnits="userSpaceOnUse">
<stop stop-color="#18D47A"/>
<stop offset="0.0001" stop-color="#18D37A"/>
<stop offset="1" stop-color="#00A28E"/>
</linearGradient>
</defs>
</svg>
