<svg width="32" height="32" viewBox="0 0 32 32" fill="none" xmlns="http://www.w3.org/2000/svg">
<g clip-path="url(#clip0_3248_2071)">
<rect width="32" height="32" rx="16" fill="url(#paint0_linear_3248_2071)"/>
<path fill-rule="evenodd" clip-rule="evenodd" d="M17.2678 0.264463C17.2678 0.118404 17.1494 1.03512e-08 17.0034 2.31201e-08L14.8636 2.1019e-07C14.7175 2.22959e-07 14.5991 0.118404 14.5991 0.264463L14.5991 5.07306C14.5991 5.21912 14.4807 5.33752 14.3346 5.33752H12.0399C11.9697 5.33752 11.9025 5.36539 11.8529 5.41498L8.5384 8.72945C8.4888 8.77905 8.46094 8.84632 8.46094 8.91646V15.2056C8.46094 15.4396 8.74245 15.5583 8.91 15.395L11.0498 13.3092C11.1009 13.2594 11.1297 13.1911 11.1297 13.1198L11.1297 9.71709C11.1297 9.64695 11.1576 9.57968 11.2072 9.53008L12.6535 8.08375C12.7031 8.03415 12.7704 8.00629 12.8405 8.00629L19.0382 8.00628C19.1013 8.00628 19.1623 8.02887 19.2103 8.06995L20.9118 9.52838C20.9704 9.57862 21.0041 9.65197 21.0041 9.72918V10.2771C21.0041 10.4232 21.1225 10.5416 21.2686 10.5416H22.229C22.2991 10.5416 22.3664 10.5137 22.416 10.4641L23.462 9.41812C23.5116 9.36853 23.5394 9.30126 23.5394 9.23112V8.64958C23.5394 8.57944 23.5116 8.51217 23.462 8.46258L20.2809 5.28154C20.2314 5.23195 20.1641 5.20409 20.0939 5.20409H17.5323C17.3863 5.20409 17.2679 5.08568 17.2679 4.93962L17.2678 0.264463ZM21.2723 13.7208C21.1262 13.7208 21.0078 13.8392 21.0078 13.9853V14.6425C21.0078 14.7121 20.9804 14.7789 20.9315 14.8284L19.0317 16.7518C18.982 16.8021 18.9142 16.8304 18.8435 16.8304H13.4187C13.3447 16.8304 13.2741 16.8614 13.2241 16.9158L11.8667 18.3916C11.8218 18.4404 11.7969 18.5043 11.7969 18.5706V18.8172C11.7969 18.9632 11.9153 19.0816 12.0614 19.0816L20.0939 19.0816C20.1641 19.0816 20.2314 19.0538 20.2809 19.0042L23.462 15.8232C23.5116 15.7736 23.5394 15.7063 23.5394 15.6361V15.0313C23.5394 14.9612 23.5116 14.8939 23.462 14.8443L22.416 13.7983C22.3664 13.7487 22.2991 13.7208 22.229 13.7208H21.2723Z" fill="white"/>
<path d="M11.7194 13.7982C11.769 13.7486 11.8363 13.7207 11.9064 13.7207L19.9427 13.7207C20.0888 13.7207 20.2072 13.8391 20.2072 13.9852V14.306C20.2072 14.3756 20.1798 14.4424 20.1309 14.4919L18.6972 15.9434C18.6475 15.9937 18.5797 16.022 18.509 16.022H13.0673C12.9933 16.022 12.9227 16.053 12.8727 16.1074L11.0661 18.0716C11.0212 18.1204 10.9963 18.1843 10.9963 18.2506V18.8171C10.9963 18.9631 10.8779 19.0815 10.7318 19.0815H9.77142C9.70128 19.0815 9.63402 19.0537 9.58442 19.0041L8.5384 17.9581C8.4888 17.9085 8.46094 17.8412 8.46094 17.7711V17.1662C8.46094 17.0961 8.4888 17.0288 8.5384 16.9792L11.7194 13.7982Z" fill="white"/>
<path fill-rule="evenodd" clip-rule="evenodd" d="M20.9481 19.4692C20.8985 19.5188 20.8707 19.5861 20.8707 19.6562V22.2829C20.8707 22.353 20.8428 22.4203 20.7932 22.4699L19.3469 23.9162C19.2973 23.9658 19.23 23.9937 19.1599 23.9937H12.9622C12.8991 23.9937 12.838 23.9711 12.7901 23.93L11.0886 22.4716C11.03 22.4213 10.9963 22.348 10.9963 22.2708V21.7228C10.9963 21.5768 10.8779 21.4584 10.7318 21.4584H9.77142C9.70128 21.4584 9.63402 21.4862 9.58442 21.5358L8.5384 22.5818C8.4888 22.6314 8.46094 22.6987 8.46094 22.7688V23.3504C8.46094 23.4205 8.4888 23.4878 8.5384 23.5374L11.7194 26.7184C11.769 26.768 11.8363 26.7959 11.9064 26.7959H14.4681C14.6141 26.7959 14.7325 26.9143 14.7325 27.0603V31.7355C14.7325 31.8816 14.8509 32 14.997 32H17.1368C17.2829 32 17.4013 31.8816 17.4013 31.7355V26.9269C17.4013 26.7808 17.5197 26.6624 17.6658 26.6624H19.9605C20.0306 26.6624 20.0979 26.6346 20.1475 26.585L23.462 23.2705C23.5116 23.2209 23.5394 23.1536 23.5394 23.0835V17.5164C23.5394 17.2808 23.2546 17.1628 23.088 17.3294L20.9481 19.4692Z" fill="white"/>
</g>
<rect x="0.75" y="0.75" width="30.5" height="30.5" rx="15.25" stroke="white" stroke-width="1.5"/>
<defs>
<linearGradient id="paint0_linear_3248_2071" x1="6.46875" y1="4.6875" x2="26.375" y2="28" gradientUnits="userSpaceOnUse">
<stop stop-color="#18D47A"/>
<stop offset="0.0001" stop-color="#18D37A"/>
<stop offset="1" stop-color="#00A28E"/>
</linearGradient>
<clipPath id="clip0_3248_2071">
<rect width="32" height="32" rx="16" fill="white"/>
</clipPath>
</defs>
</svg>
