<svg width="256" height="256" viewBox="0 0 256 256" fill="none" xmlns="http://www.w3.org/2000/svg">
<g clip-path="url(#clip0_841_1783)">
<circle cx="128" cy="128" r="121.905" fill="url(#paint0_linear_841_1783)" stroke="white" stroke-width="12.1905"/>
<path d="M165.546 145.175V179.479C165.546 180.475 165.165 181.433 164.48 182.157L153.18 194.107C152.444 194.885 151.419 195.326 150.348 195.326H105.334C104.262 195.326 103.238 194.885 102.502 194.107L90.9147 182.615C90.6195 182.322 90.4535 181.924 90.4535 181.508V175.319C90.4535 174.458 89.7555 173.76 88.8945 173.76H81.394C81.0522 173.76 80.72 173.872 80.4483 174.079L71.5791 180.847C71.1926 181.142 70.9658 181.6 70.9658 182.086V187.571C70.9658 188.567 71.3472 189.525 72.0316 190.249L94.1093 213.594C94.8455 214.373 95.8696 214.814 96.9411 214.814H116.697C117.558 214.814 118.256 215.512 118.256 216.373V248.402C118.256 249.263 118.954 249.961 119.815 249.961H136.185C137.046 249.961 137.744 249.263 137.744 248.402V216.373C137.744 215.512 138.442 214.814 139.303 214.814H158.676C159.745 214.814 160.766 214.375 161.502 213.601L183.962 189.958C184.65 189.234 185.034 188.273 185.034 187.274V135.684C185.034 134.687 184.652 133.729 183.968 133.006L180.203 130.037L165.546 145.175Z" fill="white"/>
<path d="M118.256 39.2477C118.256 40.1087 117.558 40.8067 116.697 40.8067H97.3235C96.2551 40.8067 95.2336 41.2452 94.4977 42.0198L72.0376 65.662C71.3495 66.3864 70.9658 67.3474 70.9658 68.3465V119.937C70.9658 120.933 71.3472 121.891 72.0316 122.615L76.1188 126.937L90.4535 111.999V76.1415C90.4535 75.1455 90.8348 74.1872 91.5192 73.4635L102.82 61.5139C103.556 60.7355 104.58 60.2944 105.652 60.2944H150.666C151.738 60.2944 152.762 60.7355 153.498 61.5139L164.48 73.127C165.165 73.8507 165.546 74.809 165.546 75.805V80.3018C165.546 81.1628 166.244 81.8608 167.105 81.8608H173.938C174.814 81.8608 175.664 81.5661 176.351 81.0241L184.44 74.6479C184.815 74.3522 185.034 73.9011 185.034 73.4235V68.0498C185.034 67.0537 184.652 66.0954 183.968 65.3717L161.89 42.0262C161.154 41.2478 160.13 40.8067 159.059 40.8067H139.303C138.442 40.8067 137.744 40.1087 137.744 39.2477V5.20321C137.744 3.05065 135.999 1.30566 133.846 1.30566H122.153C120.001 1.30566 118.256 3.05065 118.256 5.2032V39.2477Z" fill="white"/>
<path d="M91.1547 114.412C91.2643 114.569 91.386 114.719 91.5192 114.86L102.652 126.632C102.835 126.825 103.035 126.997 103.249 127.147C102.611 127.413 102.028 127.811 101.544 128.323L90.7286 139.759C90.2951 140.218 89.9566 140.75 89.7253 141.325L77.6163 128.52L91.1547 114.412Z" fill="white"/>
<path d="M91.4394 143.246V143.185C91.4394 142.467 91.7142 141.777 92.2075 141.255L103.023 129.819C103.553 129.258 104.291 128.94 105.064 128.94H150.887C152.27 128.94 153.59 128.366 154.533 127.355L164.212 116.98C165.75 115 165.443 114.75 165.476 113.143C165.487 112.635 165.443 112.087 165.443 112.087C165.466 109.999 165.443 108.104 165.443 108.104C165.443 107.243 166.141 106.545 167.002 106.545H174.649C174.998 106.545 175.336 106.662 175.611 106.877L183.438 113.014C184.381 113.753 184.931 114.884 184.931 116.082V120.257C184.931 121.263 184.542 122.23 183.846 122.955L161.598 146.14C160.863 146.906 159.847 147.339 158.786 147.339H96.989C95.9176 147.339 94.8934 146.898 94.1572 146.12L91.4394 143.246Z" fill="white"/>
<path d="M89.3646 151.952C89.3646 152.212 89.1539 152.422 88.894 152.422H81.3159C81.1981 152.422 81.0846 152.378 80.9978 152.298L72.2062 144.233C72.109 144.144 72.0537 144.018 72.0537 143.886V135.445C72.0537 134.72 72.334 134.023 72.8359 133.5L95.0839 110.315C95.6137 109.763 96.3457 109.451 97.1108 109.451H159.242C159.799 109.451 160.331 109.681 160.713 110.087C160.713 110.087 163.938 113.173 164.084 113.676C164.23 114.179 164 114.499 163.5 114.999L153.043 125.864C152.511 126.437 151.765 126.762 150.983 126.762H105.166C103.795 126.762 102.485 127.326 101.543 128.322L90.728 139.758C89.8524 140.684 89.3646 141.91 89.3646 143.184V151.952Z" fill="white"/>
</g>
<defs>
<linearGradient id="paint0_linear_841_1783" x1="51.75" y1="37.5" x2="211" y2="224" gradientUnits="userSpaceOnUse">
<stop stop-color="#18D47A"/>
<stop offset="1" stop-color="#00A28E"/>
</linearGradient>
<clipPath id="clip0_841_1783">
<rect width="256" height="256" fill="white"/>
</clipPath>
</defs>
</svg>
