<svg width="32" height="32" viewBox="0 0 32 32" fill="none" xmlns="http://www.w3.org/2000/svg">
<g clip-path="url(#clip0_841_1771)">
<circle cx="16" cy="16" r="15.2381" fill="url(#paint0_linear_841_1771)" stroke="white" stroke-width="1.52381"/>
<path d="M20.6936 18.1471V22.4351C20.6936 22.5596 20.646 22.6794 20.5604 22.7699L19.1478 24.2636C19.0558 24.3609 18.9278 24.416 18.7939 24.416H13.1671C13.0331 24.416 12.9051 24.3609 12.8131 24.2636L11.3647 22.8271C11.3278 22.7905 11.3071 22.7407 11.3071 22.6887V21.9151C11.3071 21.8075 11.2198 21.7202 11.1122 21.7202H10.1746C10.1319 21.7202 10.0904 21.7343 10.0564 21.7602L8.94776 22.6061C8.89944 22.643 8.87109 22.7003 8.87109 22.761V23.4466C8.87109 23.5711 8.91876 23.6909 9.00431 23.7813L11.764 26.6995C11.856 26.7968 11.9841 26.852 12.118 26.852H14.5875C14.6951 26.852 14.7824 26.9392 14.7824 27.0469V31.0505C14.7824 31.1581 14.8696 31.2454 14.9772 31.2454H17.0235C17.1311 31.2454 17.2183 31.1581 17.2183 31.0505V27.0469C17.2183 26.9392 17.3056 26.852 17.4132 26.852H19.8349C19.9684 26.852 20.0961 26.7972 20.1881 26.7003L22.9956 23.7451C23.0816 23.6545 23.1296 23.5344 23.1296 23.4095V16.9607C23.1296 16.8362 23.0819 16.7164 22.9964 16.6259L22.5258 16.2549L20.6936 18.1471Z" fill="white"/>
<path d="M14.7824 4.90584C14.7824 5.01346 14.6951 5.10071 14.5875 5.10071H12.1658C12.0323 5.10071 11.9046 5.15553 11.8126 5.25235L9.00507 8.20763C8.91905 8.29818 8.87109 8.4183 8.87109 8.54319V14.992C8.87109 15.1165 8.91876 15.2363 9.00431 15.3268L9.51522 15.867L11.3071 13.9997V9.51757C11.3071 9.39306 11.3547 9.27328 11.4403 9.18281L12.8528 7.68912C12.9449 7.59181 13.0729 7.53668 13.2068 7.53668H18.8336C18.9676 7.53668 19.0956 7.59181 19.1876 7.68912L20.5604 9.14076C20.646 9.23122 20.6936 9.351 20.6936 9.47551V10.0376C20.6936 10.1452 20.7809 10.2325 20.8885 10.2325H21.7427C21.8521 10.2325 21.9583 10.1956 22.0443 10.1279L23.0554 9.33086C23.1022 9.29391 23.1296 9.23751 23.1296 9.17782V8.5061C23.1296 8.38159 23.0819 8.26181 22.9964 8.17135L20.2367 5.25316C20.1446 5.15585 20.0166 5.10071 19.8827 5.10071H17.4132C17.3056 5.10071 17.2183 5.01346 17.2183 4.90584V0.650279C17.2183 0.38121 17.0002 0.163086 16.7311 0.163086H15.2696C15.0005 0.163086 14.7824 0.381209 14.7824 0.650279V4.90584Z" fill="white"/>
<path d="M11.3947 14.3014C11.4084 14.321 11.4236 14.3397 11.4403 14.3573L12.8319 15.8289C12.8547 15.853 12.8797 15.8745 12.9064 15.8932C12.8267 15.9265 12.7539 15.9762 12.6933 16.0403L11.3414 17.4698C11.2873 17.5271 11.2449 17.5936 11.216 17.6655L9.70241 16.0649L11.3947 14.3014Z" fill="white"/>
<path d="M11.4303 17.9056V17.898C11.4303 17.8083 11.4646 17.722 11.5263 17.6568L12.8782 16.2273C12.9445 16.1571 13.0368 16.1174 13.1333 16.1174H18.8613C19.0341 16.1174 19.1991 16.0456 19.317 15.9193L20.5268 14.6224C20.7191 14.3748 20.6808 14.3436 20.6849 14.1428C20.6862 14.0793 20.6808 14.0107 20.6808 14.0107C20.6837 13.7498 20.6808 13.5129 20.6808 13.5129C20.6808 13.4053 20.768 13.318 20.8757 13.318H21.8315C21.8751 13.318 21.9174 13.3326 21.9517 13.3595L22.9302 14.1267C23.048 14.219 23.1168 14.3604 23.1168 14.5101V15.032C23.1168 15.1577 23.0681 15.2786 22.9811 15.3693L20.2001 18.2674C20.1082 18.3632 19.9813 18.4173 19.8486 18.4173H12.124C11.9901 18.4173 11.862 18.3622 11.77 18.2649L11.4303 17.9056Z" fill="white"/>
<path d="M11.1707 18.9942C11.1707 19.0267 11.1444 19.053 11.1119 19.053H10.1646C10.1499 19.053 10.1357 19.0475 10.1248 19.0376L9.02589 18.0294C9.01375 18.0183 9.00684 18.0025 9.00684 17.9861V16.9309C9.00684 16.8403 9.04187 16.7532 9.10462 16.6878L11.8856 13.7897C11.9518 13.7207 12.0433 13.6816 12.139 13.6816H19.9054C19.975 13.6816 20.0415 13.7104 20.0892 13.7612C20.0892 13.7612 20.4923 14.1469 20.5106 14.2097C20.5288 14.2726 20.5001 14.3126 20.4376 14.3751L19.1304 15.7332C19.064 15.8048 18.9707 15.8455 18.8731 15.8455H13.1458C12.9745 15.8455 12.8107 15.916 12.693 16.0405L11.3411 17.47C11.2317 17.5857 11.1707 17.739 11.1707 17.8983V18.9942Z" fill="white"/>
</g>
<defs>
<linearGradient id="paint0_linear_841_1771" x1="6.46875" y1="4.6875" x2="26.375" y2="28" gradientUnits="userSpaceOnUse">
<stop stop-color="#18D47A"/>
<stop offset="1" stop-color="#00A28E"/>
</linearGradient>
<clipPath id="clip0_841_1771">
<rect width="32" height="32" fill="white"/>
</clipPath>
</defs>
</svg>
