<svg width="554" height="256" viewBox="0 0 554 256" fill="none" xmlns="http://www.w3.org/2000/svg">
<g opacity="0.75">
<path d="M543.549 175.232L524.585 191.193V158.906H518.423V210.462H524.585V193.827L545.069 210.462H553.951L531.14 192.195L551.79 175.232H543.549Z" fill="#273852"/>
<path d="M360.307 208.457C361.747 209.794 363.854 210.462 366.628 210.462H375.43V205.736H368.148C366.868 205.736 365.908 205.426 365.268 204.806C364.627 204.137 364.307 203.23 364.307 202.084V179.958H374.87V175.232H364.307V164.921H358.146V175.232H350.625V179.958H358.146V202.586C358.146 205.116 358.866 207.073 360.307 208.457Z" fill="#273852"/>
<path d="M296.813 178.097C299.427 180.722 300.733 184.541 300.733 189.553V210.462H294.572V190.198C294.572 186.474 293.692 183.682 291.932 181.82C290.225 179.911 287.904 178.956 284.97 178.956C282.836 178.956 280.836 179.505 278.969 180.603C277.102 181.653 275.582 183.348 274.408 185.687C273.234 187.978 272.648 190.962 272.648 194.637V210.462H266.486V175.232H272.568V182.432C273.103 181.114 273.77 179.979 274.568 179.027C276.062 177.261 277.822 175.996 279.849 175.232C281.876 174.469 283.983 174.087 286.17 174.087C290.705 174.087 294.252 175.423 296.813 178.097Z" fill="#273852"/>
<path fill-rule="evenodd" clip-rule="evenodd" d="M341.931 200.366L346.092 203.946C344.012 206.524 341.558 208.457 338.731 209.746C335.957 210.987 332.89 211.608 329.529 211.608C325.581 211.608 322.087 210.797 319.047 209.173C316.059 207.55 313.712 205.331 312.005 202.514C310.352 199.65 309.525 196.428 309.525 192.847C309.525 189.267 310.352 186.069 312.005 183.252C313.712 180.388 316.006 178.144 318.887 176.521C321.821 174.898 325.101 174.087 328.729 174.087C332.303 174.087 335.45 174.874 338.171 176.45C340.945 178.025 343.105 180.221 344.652 183.037C346.199 185.806 346.973 189.005 346.973 192.633V194.781H316.033C316.245 196.696 316.769 198.439 317.606 200.008C318.78 202.108 320.407 203.779 322.487 205.02C324.621 206.214 327.102 206.81 329.929 206.81C332.383 206.81 334.597 206.285 336.57 205.235C338.544 204.185 340.331 202.562 341.931 200.366ZM337.451 182.679C339.215 184.681 340.267 187.212 340.608 190.27H316.088C316.32 188.55 316.799 186.975 317.526 185.544C318.647 183.443 320.167 181.82 322.087 180.674C324.061 179.481 326.275 178.884 328.729 178.884C332.356 178.884 335.263 180.149 337.451 182.679Z" fill="#273852"/>
<path d="M435.275 175.232L423.432 210.462H416.551L407.512 182.152L398.547 210.462H391.586L379.903 175.232H386.224L395.169 204.518L404.468 175.232H410.71L420.023 204.788L429.193 175.232H435.275Z" fill="#273852"/>
<path fill-rule="evenodd" clip-rule="evenodd" d="M450.524 209.173C453.511 210.797 456.899 211.608 460.686 211.608C464.527 211.608 467.941 210.797 470.928 209.173C473.916 207.55 476.236 205.331 477.89 202.514C479.597 199.698 480.45 196.475 480.45 192.847C480.45 189.219 479.597 185.997 477.89 183.181C476.236 180.364 473.916 178.144 470.928 176.521C467.941 174.898 464.527 174.087 460.686 174.087C456.899 174.087 453.511 174.898 450.524 176.521C447.537 178.144 445.19 180.364 443.483 183.181C441.829 185.997 441.002 189.219 441.002 192.847C441.002 196.475 441.829 199.698 443.483 202.514C445.19 205.331 447.537 207.55 450.524 209.173ZM467.648 205.02C465.674 206.214 463.353 206.81 460.686 206.81C458.072 206.81 455.779 206.214 453.805 205.02C451.831 203.827 450.284 202.18 449.164 200.08C448.044 197.979 447.483 195.568 447.483 192.847C447.483 190.079 448.044 187.668 449.164 185.615C450.284 183.515 451.831 181.868 453.805 180.674C455.779 179.481 458.072 178.884 460.686 178.884C463.353 178.884 465.674 179.481 467.648 180.674C469.621 181.868 471.168 183.515 472.289 185.615C473.409 187.668 473.969 190.079 473.969 192.847C473.969 195.568 473.409 197.979 472.289 200.08C471.168 202.18 469.621 203.827 467.648 205.02Z" fill="#273852"/>
<path d="M503.702 175.805C505.783 175.041 507.89 174.66 510.023 174.66H511.304V179.958H509.943C507.49 179.958 505.196 180.531 503.062 181.677C500.982 182.775 499.301 184.493 498.021 186.832C496.741 189.124 496.1 192.084 496.1 195.712V210.462H489.939V175.232H496.02V183.008C496.588 181.659 497.308 180.499 498.181 179.529C499.781 177.81 501.622 176.569 503.702 175.805Z" fill="#273852"/>
</g>
<path d="M323.672 114.374C327.541 110.389 329.475 105.034 329.475 98.3095V44.3887H348.443V98.3095C348.443 110.015 344.809 119.147 337.543 125.706C330.277 132.181 320.275 135.419 307.535 135.419C294.796 135.419 284.746 132.181 277.386 125.706C270.119 119.147 266.486 110.015 266.486 98.3095V44.3887H285.595V98.3095C285.595 105.034 287.53 110.389 291.399 114.374C295.268 118.276 300.647 120.227 307.535 120.227C314.424 120.227 319.803 118.276 323.672 114.374Z" fill="#273852"/>
<path fill-rule="evenodd" clip-rule="evenodd" d="M429.178 130.313C424.082 132.389 418.09 133.427 411.201 133.427H369.303V44.3887H410.352C416.58 44.3887 422.006 45.3434 426.63 47.2528C431.348 49.1623 435.029 51.8604 437.671 55.3472C440.313 58.834 441.634 62.9019 441.634 67.551C441.634 71.951 440.313 75.8529 437.671 79.2567C435.414 82.1636 432.401 84.5255 428.63 86.3425C428.862 86.4276 429.092 86.5147 429.319 86.6039C434.51 88.5133 438.52 91.2944 441.351 94.9473C444.182 98.5171 445.597 102.751 445.597 107.649C445.597 112.796 444.135 117.321 441.209 121.223C438.379 125.125 434.368 128.155 429.178 130.313ZM422.242 97.936C419.6 95.7775 415.967 94.6982 411.343 94.6982H388.412V119.23H411.343C415.967 119.23 419.6 118.151 422.242 115.993C424.979 113.751 426.347 110.679 426.347 106.777C426.347 103.042 424.979 100.094 422.242 97.936ZM418.845 61.5736C416.486 59.5812 413.277 58.5849 409.22 58.5849H388.412V80.8755H409.22C413.277 80.8755 416.486 79.8793 418.845 77.8869C421.204 75.8114 422.384 72.9887 422.384 69.4189C422.384 66.0982 421.204 63.4831 418.845 61.5736Z" fill="#273852"/>
<path fill-rule="evenodd" clip-rule="evenodd" d="M524.672 50.117C517.028 46.2981 508.064 44.3887 497.778 44.3887H462.957V133.427H497.778C508.064 133.427 517.028 131.517 524.672 127.698C532.41 123.879 538.402 118.649 542.648 112.008C546.989 105.283 549.16 97.5624 549.16 88.8454C549.16 80.1284 546.989 72.4491 542.648 65.8076C538.402 59.083 532.41 53.8528 524.672 50.117ZM514.339 115.245C509.715 117.736 504.195 118.981 497.778 118.981H482.066V58.834H497.778C504.195 58.834 509.715 60.0793 514.339 62.5698C519.057 65.0604 522.69 68.5472 525.238 73.0302C527.786 77.5133 529.06 82.785 529.06 88.8454C529.06 94.9058 527.786 100.219 525.238 104.785C522.69 109.268 519.057 112.755 514.339 115.245Z" fill="#273852"/>
<path fill-rule="evenodd" clip-rule="evenodd" d="M91.4805 0.795791C90.7726 1.24633 88.9584 2.84825 87.4982 4.4001C67.8516 25.0248 44.4882 35.3371 14.2662 36.7388C5.85889 37.1393 5.2394 37.2894 3.38095 39.0916C3.27189 39.2011 3.16678 39.3055 3.06546 39.4061C2.59444 39.874 2.20537 40.2605 1.88282 40.6962C0.351556 42.7647 0.319479 45.943 0.135121 64.21C0.126027 65.1111 0.116562 66.0488 0.106529 67.025C-0.291711 103.869 0.372023 120.289 3.02696 139.111C8.82357 180.16 24.9744 211.197 51.8778 232.823C61.0815 240.232 72.6305 247.241 84.8432 252.797C91.3478 255.751 92.1885 256.001 95.2417 256.001C98.2506 256.001 99.1356 255.751 104.976 253.047C112.676 249.543 120.818 245.188 126.349 241.684C160.907 219.457 180.819 186.017 187.456 139.061C190.111 120.289 190.775 103.819 190.377 67.025C190.367 66.0491 190.357 65.1116 190.348 64.2108C190.164 45.9431 190.132 42.7647 188.601 40.6962C188.278 40.2605 187.889 39.874 187.418 39.4061C187.317 39.3054 187.212 39.201 187.102 39.0916C185.244 37.2894 184.625 37.1393 176.217 36.7388C146.084 35.3872 122.543 24.9747 103.162 4.60034C101.614 2.94837 99.7109 1.19627 98.9144 0.745731C97.1002 -0.255466 93.2063 -0.255466 91.4805 0.795791ZM47.7766 76.831L56.2405 69.1379L95.1332 111.928L134.026 69.1382L142.49 76.8313L102.861 120.43L126.597 146.544L126.588 146.552L144.831 150.981L141.01 170.896L120.826 172.803L118.153 154.219L118.133 154.237L95.1332 128.933L72.1331 154.237L72.1169 154.223L69.4435 172.813L49.2575 170.906L45.4372 150.993L63.6883 146.562L63.6692 146.544L87.4051 120.43L72.0348 103.52L59.3407 115.058L38.3146 91.925L47.0757 83.9618L50.3087 87.5188L54.2417 83.944L47.7766 76.831ZM51.9587 106.932L57.6153 101.79L61.0566 105.577L55.4 110.718L51.9587 106.932ZM145.018 173.343L148.192 156.797L151.95 182.928L126.302 176.702L143.065 175.118L144.707 174.963L145.018 173.343ZM139.915 87.4868L143.148 83.93L151.951 91.9314L130.925 115.064L118.229 103.525L136.022 83.9486L139.915 87.4868ZM132.649 101.797L138.306 106.939L134.864 110.725L129.208 105.583L132.649 101.797ZM42.0768 156.812L45.2502 173.354L45.5608 174.973L47.2024 175.128L63.9685 176.712L38.3196 182.939L42.0768 156.812Z" fill="#273852"/>
</svg>
