<svg width="70" height="32" viewBox="0 0 70 32" fill="none" xmlns="http://www.w3.org/2000/svg">
<g opacity="0.75">
<path d="M67.9433 21.904L65.5728 23.8991V19.8633H64.8027V26.3078H65.5728V24.2284L68.1334 26.3078H69.2436L66.3923 24.0243L68.9735 21.904H67.9433Z" fill="#273852"/>
<path d="M45.0381 26.0572C45.2181 26.2243 45.4815 26.3078 45.8282 26.3078H46.9285V25.717H46.0183C45.8582 25.717 45.7382 25.6783 45.6582 25.6007C45.5782 25.5171 45.5382 25.4038 45.5382 25.2606V22.4948H46.8585V21.904H45.5382V20.6151H44.768V21.904H43.8278V22.4948H44.768V25.3232C44.768 25.6395 44.858 25.8841 45.0381 26.0572Z" fill="#273852"/>
<path d="M37.1013 22.2621C37.4281 22.5903 37.5914 23.0676 37.5914 23.6942V26.3078H36.8213V23.7747C36.8213 23.3093 36.7113 22.9602 36.4912 22.7275C36.2778 22.4888 35.9878 22.3695 35.621 22.3695C35.3543 22.3695 35.1043 22.4381 34.8709 22.5753C34.6375 22.7066 34.4475 22.9185 34.3008 23.2108C34.1541 23.4973 34.0807 23.8702 34.0807 24.3297V26.3078H33.3105V21.904H34.0707V22.804C34.1377 22.6393 34.221 22.4974 34.3208 22.3784C34.5075 22.1576 34.7275 21.9995 34.9809 21.904C35.2343 21.8086 35.4977 21.7608 35.7711 21.7608C36.3378 21.7608 36.7813 21.9279 37.1013 22.2621Z" fill="#273852"/>
<path fill-rule="evenodd" clip-rule="evenodd" d="M42.7412 25.0457L43.2613 25.4933C43.0012 25.8155 42.6945 26.0572 42.3411 26.2183C41.9944 26.3734 41.611 26.451 41.1909 26.451C40.6974 26.451 40.2607 26.3496 39.8806 26.1467C39.5072 25.9438 39.2138 25.6663 39.0004 25.3143C38.7937 24.9562 38.6903 24.5535 38.6903 24.1059C38.6903 23.6584 38.7937 23.2586 39.0004 22.9065C39.2138 22.5485 39.5005 22.268 39.8606 22.0652C40.2273 21.8623 40.6374 21.7608 41.0908 21.7608C41.5376 21.7608 41.931 21.8593 42.2711 22.0562C42.6178 22.2531 42.8879 22.5276 43.0813 22.8797C43.2746 23.2258 43.3713 23.6256 43.3713 24.0791V24.3476H39.5039C39.5304 24.587 39.5959 24.8048 39.7006 25.001C39.8472 25.2635 40.0506 25.4724 40.3107 25.6275C40.5774 25.7767 40.8875 25.8513 41.2409 25.8513C41.5476 25.8513 41.8243 25.7857 42.071 25.6544C42.3178 25.5231 42.5411 25.3202 42.7412 25.0457ZM42.1811 22.8349C42.4016 23.0852 42.5332 23.4014 42.5758 23.7837H39.5108C39.5398 23.5688 39.5997 23.3719 39.6905 23.1929C39.8306 22.9304 40.0206 22.7275 40.2607 22.5843C40.5074 22.4351 40.7841 22.3605 41.0908 22.3605C41.5443 22.3605 41.9077 22.5187 42.1811 22.8349Z" fill="#273852"/>
<path d="M54.4091 21.904L52.9288 26.3078H52.0686L50.9387 22.7689L49.8181 26.3078H48.9479L47.4876 21.904H48.2778L49.3959 25.5647L50.5583 21.904H51.3384L52.5026 25.5985L53.6489 21.904H54.4091Z" fill="#273852"/>
<path fill-rule="evenodd" clip-rule="evenodd" d="M56.3153 26.1467C56.6887 26.3496 57.1121 26.451 57.5855 26.451C58.0656 26.451 58.4924 26.3496 58.8658 26.1467C59.2392 25.9438 59.5293 25.6663 59.736 25.3143C59.9494 24.9622 60.0561 24.5594 60.0561 24.1059C60.0561 23.6524 59.9494 23.2496 59.736 22.8976C59.5293 22.5455 59.2392 22.268 58.8658 22.0652C58.4924 21.8623 58.0656 21.7608 57.5855 21.7608C57.1121 21.7608 56.6887 21.8623 56.3153 22.0652C55.9419 22.268 55.6485 22.5455 55.4351 22.8976C55.2284 23.2496 55.125 23.6524 55.125 24.1059C55.125 24.5594 55.2284 24.9622 55.4351 25.3143C55.6485 25.6663 55.9419 25.9438 56.3153 26.1467ZM58.4557 25.6275C58.209 25.7767 57.9189 25.8513 57.5855 25.8513C57.2588 25.8513 56.9721 25.7767 56.7254 25.6275C56.4786 25.4784 56.2853 25.2725 56.1452 25.0099C56.0052 24.7474 55.9352 24.446 55.9352 24.1059C55.9352 23.7598 56.0052 23.4585 56.1452 23.2019C56.2853 22.9393 56.4786 22.7335 56.7254 22.5843C56.9721 22.4351 57.2588 22.3605 57.5855 22.3605C57.9189 22.3605 58.209 22.4351 58.4557 22.5843C58.7024 22.7335 58.8958 22.9393 59.0358 23.2019C59.1759 23.4585 59.2459 23.7598 59.2459 24.1059C59.2459 24.446 59.1759 24.7474 59.0358 25.0099C58.8958 25.2725 58.7024 25.4784 58.4557 25.6275Z" fill="#273852"/>
<path d="M62.9625 21.9756C63.2226 21.8802 63.486 21.8324 63.7527 21.8324H63.9127V22.4948H63.7427C63.4359 22.4948 63.1492 22.5664 62.8825 22.7096C62.6224 22.8469 62.4124 23.0617 62.2524 23.3541C62.0923 23.6405 62.0123 24.0104 62.0123 24.4639V26.3078H61.2422V21.904H62.0023V22.8761C62.0732 22.7073 62.1632 22.5623 62.2724 22.4411C62.4724 22.2263 62.7025 22.0711 62.9625 21.9756Z" fill="#273852"/>
</g>
<path d="M40.4587 14.297C40.9423 13.7988 41.1841 13.1295 41.1841 12.2889V5.54883H43.5551V12.2889C43.5551 13.7521 43.1009 14.8937 42.1927 15.7135C41.2844 16.5229 40.0341 16.9276 38.4417 16.9276C36.8492 16.9276 35.593 16.5229 34.6729 15.7135C33.7647 14.8937 33.3105 13.7521 33.3105 12.2889V5.54883H35.6992V12.2889C35.6992 13.1295 35.941 13.7988 36.4246 14.297C36.9082 14.7847 37.5806 15.0286 38.4417 15.0286C39.3027 15.0286 39.9751 14.7847 40.4587 14.297Z" fill="#273852"/>
<path fill-rule="evenodd" clip-rule="evenodd" d="M53.647 16.2894C53.01 16.5489 52.261 16.6786 51.3999 16.6786H46.1626V5.54883H51.2938C52.0723 5.54883 52.7505 5.66817 53.3285 5.90685C53.9183 6.14553 54.3783 6.48279 54.7086 6.91864C55.0389 7.35449 55.204 7.86298 55.204 8.44412C55.204 8.99412 55.0389 9.48186 54.7086 9.90733C54.4265 10.2707 54.0498 10.5659 53.5785 10.7931C53.6075 10.8037 53.6362 10.8146 53.6647 10.8257C54.3134 11.0644 54.8148 11.412 55.1686 11.8687C55.5225 12.3149 55.6994 12.8441 55.6994 13.4564C55.6994 14.0998 55.5166 14.6654 55.1509 15.1531C54.7971 15.6408 54.2958 16.0196 53.647 16.2894ZM52.78 12.2422C52.4497 11.9724 51.9956 11.8375 51.4176 11.8375H48.5513V14.904H51.4176C51.9956 14.904 52.4497 14.7691 52.78 14.4993C53.1221 14.2191 53.2931 13.8352 53.2931 13.3474C53.2931 12.8804 53.1221 12.5121 52.78 12.2422ZM52.3554 7.69695C52.0605 7.44789 51.6594 7.32336 51.1522 7.32336H48.5513V10.1097H51.1522C51.6594 10.1097 52.0605 9.98516 52.3554 9.7361C52.6503 9.47667 52.7977 9.12384 52.7977 8.67761C52.7977 8.26251 52.6503 7.93563 52.3554 7.69695Z" fill="#273852"/>
<path fill-rule="evenodd" clip-rule="evenodd" d="M65.5837 6.26487C64.6283 5.78751 63.5077 5.54883 62.222 5.54883H57.8694V16.6786H62.222C63.5077 16.6786 64.6283 16.4399 65.5837 15.9625C66.551 15.4852 67.3 14.8314 67.8308 14.0012C68.3734 13.1606 68.6447 12.1955 68.6447 11.1059C68.6447 10.0163 68.3734 9.05638 67.8308 8.22619C67.3 7.38562 66.551 6.73185 65.5837 6.26487ZM64.2921 14.4059C63.7141 14.7172 63.0241 14.8729 62.222 14.8729H60.258V7.35449H62.222C63.0241 7.35449 63.7141 7.51015 64.2921 7.82147C64.8819 8.1328 65.336 8.56865 65.6545 9.12902C65.973 9.6894 66.1322 10.3484 66.1322 11.1059C66.1322 11.8635 65.973 12.5276 65.6545 13.0984C65.336 13.6588 64.8819 14.0946 64.2921 14.4059Z" fill="#273852"/>
<path fill-rule="evenodd" clip-rule="evenodd" d="M11.4351 0.0993519C11.3466 0.155669 11.1198 0.355909 10.9373 0.549891C8.48145 3.12797 5.56102 4.41702 1.78327 4.59222C0.732361 4.64228 0.654926 4.66106 0.422619 4.88633C0.408987 4.90001 0.395848 4.91306 0.383183 4.92564C0.324305 4.98413 0.275672 5.03244 0.235353 5.0869C0.0439445 5.34547 0.0399349 5.74276 0.0168901 8.02613C0.0157534 8.13876 0.0145703 8.25598 0.0133162 8.378C-0.0364639 12.9835 0.0465029 15.036 0.37837 17.3888C1.10295 22.5199 3.1218 26.3996 6.48472 29.1028C7.63519 30.0289 9.07881 30.9049 10.6054 31.5995C11.4185 31.9687 11.5236 32 11.9052 32C12.2813 32 12.392 31.9687 13.1221 31.6308C14.0845 31.1928 15.1022 30.6484 15.7936 30.2104C20.1134 27.432 22.6024 23.252 23.4321 17.3825C23.7639 15.036 23.8469 12.9773 23.7971 8.378C23.7959 8.25602 23.7947 8.13883 23.7935 8.02622C23.7705 5.74277 23.7665 5.34547 23.5751 5.0869C23.5348 5.03244 23.4861 4.98413 23.4272 4.92565C23.4146 4.91307 23.4014 4.90001 23.3878 4.88633C23.1555 4.66106 23.0781 4.64228 22.0272 4.59222C18.2605 4.42327 15.3179 3.12172 12.8953 0.574921C12.7017 0.368424 12.4639 0.149412 12.3643 0.0930944C12.1375 -0.0320553 11.6508 -0.0320553 11.4351 0.0993519ZM5.9721 9.60398L7.03009 8.64234L11.8913 13.9907L16.7533 8.64155L17.8113 9.60318L12.8574 15.0535L15.8247 18.3181L15.8229 18.3197L18.1038 18.8734L17.6263 21.3625L15.1032 21.6009L14.7691 19.2775L14.7667 19.2797L11.8914 16.1163L9.01676 19.2789L9.01451 19.2769L8.68035 21.6006L6.15715 21.3623L5.67964 18.8732L7.961 18.3193L7.95877 18.3173L10.9253 15.0535L5.9721 9.60398ZM5.88442 10.496L6.28875 10.9408L6.78068 10.4937L9.00462 12.9404L7.41763 14.3829L6.92505 13.841L7.6321 13.1983L7.20194 12.725L6.49489 13.3677L4.78937 11.4913L5.88442 10.496ZM18.1272 21.6685L18.524 19.6005L18.9937 22.8668L15.7871 22.0883L17.8832 21.8903L18.0884 21.8709L18.1272 21.6685ZM17.4895 10.9359L17.8938 10.4912L18.994 11.4912L17.2885 13.3676L16.5814 12.7249L16.1513 13.1982L16.8583 13.8408L16.3657 14.3828L14.7787 12.9403L17.0027 10.4935L17.4895 10.9359ZM5.25954 19.6004L5.65624 21.6682L5.69507 21.8707L5.90026 21.89L7.99641 22.0881L4.78984 22.8666L5.25954 19.6004Z" fill="#273852"/>
</svg>
