<svg width="260" height="120" viewBox="0 0 260 120" fill="none" xmlns="http://www.w3.org/2000/svg">
<path d="M42.9639 1.29114C42.6367 1.49935 41.7983 2.23965 41.1235 2.95682C32.0441 12.4882 21.2471 17.2539 7.2804 17.9017C3.3951 18.0867 3.10881 18.1561 2.24996 18.989C0.798078 20.4464 0.859425 19.9606 0.736731 31.898C0.55269 48.9249 0.859425 56.513 2.08636 65.2115C4.76518 84.1818 12.2291 98.5251 24.662 108.519C28.9154 111.943 34.2526 115.182 39.8965 117.75C42.9025 119.115 43.291 119.23 44.702 119.23C46.0926 119.23 46.5015 119.115 49.2008 117.865C52.7589 116.246 56.5215 114.233 59.0777 112.614C75.0483 102.342 84.2504 86.8885 87.3177 65.1884C88.5446 56.513 88.8514 48.9018 88.6673 31.898C88.5446 19.9606 88.606 20.4464 87.1541 18.989C86.2952 18.1561 86.009 18.0867 82.1237 17.9017C68.1979 17.277 57.319 12.4651 48.3624 3.04936C47.6467 2.28592 46.7674 1.47622 46.3993 1.26801C45.5609 0.805317 43.7614 0.805317 42.9639 1.29114ZM46.6856 12.7195C55.4786 20.7009 66.5415 25.3509 78.8723 26.23L81.0399 26.392L81.183 35.692C81.4284 52.0712 80.7536 61.3943 78.6473 70.8332C75.5186 84.9683 68.6887 95.6101 57.7485 103.522C55.3559 105.257 49.1599 108.75 46.5015 109.884L44.702 110.624L42.923 109.884C39.7943 108.565 33.4755 104.91 30.5922 102.736C20.286 94.9624 13.8036 84.5519 10.7567 70.8332C8.65048 61.3943 7.97567 52.0712 8.22106 35.692L8.3642 26.392L10.5318 26.23C17.6071 25.7211 25.3368 23.6621 31.083 20.7472C35.0501 18.7345 39.6473 15.4957 42.5511 12.7195C43.2872 12.0255 44.4975 11.1001 44.6407 11.1001C44.7838 11.077 45.704 11.8173 46.6856 12.7195Z" fill="url(#paint0_linear_1658_7606)"/>
<path fill-rule="evenodd" clip-rule="evenodd" d="M22.7663 36.4172L26.6778 32.862L59.192 68.6341L59.186 68.6395L67.6199 70.6871L65.8542 79.891L56.526 80.7723L55.2904 72.1803L55.2805 72.1893L33.9765 48.7506L28.1115 54.0814L26.2924 52.08L28.905 49.7053L27.3147 47.9557L24.7021 50.3303L18.3946 43.3909L24.2596 38.0601L22.7663 36.4172ZM24.2604 38.061L25.7553 39.7057L23.9374 41.358L22.4425 39.7134L24.2604 38.061ZM67.7061 81.0222L69.1729 73.3764L70.9092 85.4508L59.0593 82.5739L66.8039 81.8422L67.5625 81.7705L67.7061 81.0222Z" fill="white"/>
<path fill-rule="evenodd" clip-rule="evenodd" d="M22.7663 36.4172L26.6778 32.862L59.192 68.6341L59.186 68.6395L67.6199 70.6871L65.8542 79.891L56.526 80.7723L55.2904 72.1803L55.2805 72.1893L33.9765 48.7506L28.1115 54.0814L26.2924 52.08L28.905 49.7053L27.3147 47.9557L24.7021 50.3303L18.3946 43.3909L24.2596 38.0601L22.7663 36.4172ZM24.2604 38.061L25.7553 39.7057L23.9374 41.358L22.4425 39.7134L24.2604 38.061ZM67.7061 81.0222L69.1729 73.3764L70.9092 85.4508L59.0593 82.5739L66.8039 81.8422L67.5625 81.7705L67.7061 81.0222Z" fill="white"/>
<path fill-rule="evenodd" clip-rule="evenodd" d="M22.7663 36.4172L26.6778 32.862L59.192 68.6341L59.186 68.6395L67.6199 70.6871L65.8542 79.891L56.526 80.7723L55.2904 72.1803L55.2805 72.1893L33.9765 48.7506L28.1115 54.0814L26.2924 52.08L28.905 49.7053L27.3147 47.9557L24.7021 50.3303L18.3946 43.3909L24.2596 38.0601L22.7663 36.4172ZM24.2604 38.061L25.7553 39.7057L23.9374 41.358L22.4425 39.7134L24.2604 38.061ZM67.7061 81.0222L69.1729 73.3764L70.9092 85.4508L59.0593 82.5739L66.8039 81.8422L67.5625 81.7705L67.7061 81.0222Z" fill="url(#paint1_linear_1658_7606)"/>
<path fill-rule="evenodd" clip-rule="evenodd" d="M66.5393 36.4172L62.6279 32.862L30.1137 68.6341L30.1197 68.6395L21.6857 70.6871L23.4514 79.8909L32.7797 80.7722L34.0153 72.1803L34.0251 72.1893L55.3292 48.7506L61.1942 54.0814L63.0133 52.08L60.4007 49.7054L61.991 47.9557L64.6036 50.3304L70.911 43.3909L66.8438 39.6941L65.3495 41.3382L63.5518 39.7042L66.5393 36.4172ZM21.5995 81.0221L20.1327 73.3767L18.3964 85.4508L30.2464 82.5738L22.5017 81.8421L21.743 81.7705L21.5995 81.0221Z" fill="white"/>
<path fill-rule="evenodd" clip-rule="evenodd" d="M66.5393 36.4172L62.6279 32.862L30.1137 68.6341L30.1197 68.6395L21.6857 70.6871L23.4514 79.8909L32.7797 80.7722L34.0153 72.1803L34.0251 72.1893L55.3292 48.7506L61.1942 54.0814L63.0133 52.08L60.4007 49.7054L61.991 47.9557L64.6036 50.3304L70.911 43.3909L66.8438 39.6941L65.3495 41.3382L63.5518 39.7042L66.5393 36.4172ZM21.5995 81.0221L20.1327 73.3767L18.3964 85.4508L30.2464 82.5738L22.5017 81.8421L21.743 81.7705L21.5995 81.0221Z" fill="white"/>
<path fill-rule="evenodd" clip-rule="evenodd" d="M66.5393 36.4172L62.6279 32.862L30.1137 68.6341L30.1197 68.6395L21.6857 70.6871L23.4514 79.8909L32.7797 80.7722L34.0153 72.1803L34.0251 72.1893L55.3292 48.7506L61.1942 54.0814L63.0133 52.08L60.4007 49.7054L61.991 47.9557L64.6036 50.3304L70.911 43.3909L66.8438 39.6941L65.3495 41.3382L63.5518 39.7042L66.5393 36.4172ZM21.5995 81.0221L20.1327 73.3767L18.3964 85.4508L30.2464 82.5738L22.5017 81.8421L21.743 81.7705L21.5995 81.0221Z" fill="url(#paint2_linear_1658_7606)"/>
<g opacity="0.75">
<path d="M254.429 82.2448L245.529 89.7359V74.582H242.637V98.7802H245.529V90.9725L255.143 98.7802H259.312L248.606 90.2062L258.298 82.2448H254.429Z" fill="#30425A"/>
<path d="M168.424 97.8392C169.1 98.4665 170.089 98.7802 171.391 98.7802H175.522V96.562H172.104C171.503 96.562 171.053 96.4164 170.752 96.1251C170.452 95.8114 170.302 95.3857 170.302 94.848V84.4629H175.259V82.2448H170.302V77.4051H167.41V82.2448H163.879V84.4629H167.41V95.0833C167.41 96.2708 167.748 97.1894 168.424 97.8392Z" fill="#30425A"/>
<path d="M138.623 83.5891C139.849 84.8214 140.463 86.6139 140.463 88.9665V98.7802H137.571V89.269C137.571 87.5213 137.158 86.2106 136.332 85.3368C135.53 84.4405 134.441 83.9924 133.064 83.9924C132.063 83.9924 131.124 84.2501 130.247 84.7654C129.371 85.2583 128.658 86.0538 128.107 87.1516C127.556 88.2271 127.281 89.6275 127.281 91.3527V98.7802H124.389V82.2448H127.243V85.624C127.494 85.0054 127.807 84.4728 128.182 84.026C128.883 83.197 129.709 82.6033 130.661 82.2448C131.612 81.8863 132.601 81.707 133.628 81.707C135.756 81.707 137.421 82.3344 138.623 83.5891Z" fill="#30425A"/>
<path fill-rule="evenodd" clip-rule="evenodd" d="M159.799 94.0414L161.752 95.7218C160.776 96.9317 159.624 97.8392 158.297 98.4441C156.995 99.0267 155.555 99.3179 153.978 99.3179C152.125 99.3179 150.485 98.937 149.058 98.1752C147.656 97.4134 146.554 96.3716 145.753 95.0496C144.977 93.7053 144.589 92.1929 144.589 90.5125C144.589 88.8321 144.977 87.3309 145.753 86.0089C146.554 84.6646 147.631 83.6115 148.983 82.8497C150.36 82.0879 151.9 81.707 153.602 81.707C155.28 81.707 156.757 82.0767 158.034 82.8161C159.336 83.5555 160.35 84.5862 161.076 85.9081C161.802 87.2076 162.165 88.7088 162.165 90.4117V91.4199H147.644C147.743 92.319 147.989 93.1368 148.382 93.8733C148.933 94.8592 149.697 95.6434 150.673 96.2259C151.675 96.7861 152.839 97.0662 154.166 97.0662C155.318 97.0662 156.357 96.8197 157.283 96.3268C158.209 95.8338 159.048 95.0721 159.799 94.0414ZM157.696 85.7401C158.524 86.6798 159.018 87.8673 159.178 89.3026H147.67C147.778 88.4956 148.003 87.7562 148.345 87.0844C148.87 86.0986 149.584 85.3368 150.485 84.799C151.412 84.2389 152.451 83.9588 153.602 83.9588C155.305 83.9588 156.67 84.5526 157.696 85.7401Z" fill="#30425A"/>
<path d="M203.61 82.2448L198.052 98.7802H194.822L190.58 85.4924L186.372 98.7802H183.105L177.622 82.2448H180.588L184.787 95.99L189.151 82.2448H192.081L196.452 96.1169L200.756 82.2448H203.61Z" fill="#30425A"/>
<path fill-rule="evenodd" clip-rule="evenodd" d="M210.768 98.1752C212.17 98.937 213.76 99.3179 215.538 99.3179C217.34 99.3179 218.943 98.937 220.345 98.1752C221.747 97.4134 222.836 96.3716 223.612 95.0496C224.413 93.7277 224.814 92.2153 224.814 90.5125C224.814 88.8097 224.413 87.2973 223.612 85.9753C222.836 84.6534 221.747 83.6115 220.345 82.8497C218.943 82.0879 217.34 81.707 215.538 81.707C213.76 81.707 212.17 82.0879 210.768 82.8497C209.366 83.6115 208.264 84.6534 207.463 85.9753C206.687 87.2973 206.299 88.8097 206.299 90.5125C206.299 92.2153 206.687 93.7277 207.463 95.0496C208.264 96.3716 209.366 97.4134 210.768 98.1752ZM218.805 96.2259C217.879 96.7861 216.789 97.0662 215.538 97.0662C214.311 97.0662 213.234 96.7861 212.308 96.2259C211.381 95.6658 210.655 94.8928 210.129 93.907C209.604 92.9211 209.341 91.7896 209.341 90.5125C209.341 89.213 209.604 88.0815 210.129 87.118C210.655 86.1322 211.381 85.3592 212.308 84.799C213.234 84.2389 214.311 83.9588 215.538 83.9588C216.789 83.9588 217.879 84.2389 218.805 84.799C219.731 85.3592 220.457 86.1322 220.983 87.118C221.509 88.0815 221.772 89.213 221.772 90.5125C221.772 91.7896 221.509 92.9211 220.983 93.907C220.457 94.8928 219.731 95.6658 218.805 96.2259Z" fill="#30425A"/>
<path d="M235.727 82.5137C236.704 82.1552 237.693 81.9759 238.694 81.9759H239.295V84.4629H238.657C237.505 84.4629 236.428 84.7318 235.427 85.2696C234.45 85.7849 233.662 86.5915 233.061 87.6894C232.46 88.7648 232.159 90.154 232.159 91.8568V98.7802H229.268V82.2448H232.122V85.8946C232.388 85.2609 232.726 84.7165 233.136 84.2613C233.887 83.4547 234.751 82.8721 235.727 82.5137Z" fill="#30425A"/>
</g>
<path d="M151.229 53.6838C153.045 51.8135 153.953 49.3002 153.953 46.144V20.8359H162.855V46.144C162.855 51.6382 161.15 55.9244 157.74 59.0026C154.329 62.0419 149.634 63.5616 143.655 63.5616C137.676 63.5616 132.959 62.0419 129.504 59.0026C126.094 55.9244 124.389 51.6382 124.389 46.144V20.8359H133.358V46.144C133.358 49.3002 134.266 51.8135 136.081 53.6838C137.897 55.5152 140.422 56.4309 143.655 56.4309C146.888 56.4309 149.413 55.5152 151.229 53.6838Z" fill="#273852"/>
<path fill-rule="evenodd" clip-rule="evenodd" d="M200.749 61.1652C198.357 62.1393 195.545 62.6264 192.312 62.6264H172.646V20.8359H191.913C194.836 20.8359 197.383 21.284 199.553 22.1802C201.768 23.0765 203.495 24.3428 204.735 25.9794C205.975 27.6159 206.595 29.5252 206.595 31.7073C206.595 33.7725 205.975 35.6039 204.735 37.2014C203.676 38.5658 202.262 39.6744 200.492 40.5272C200.601 40.5672 200.708 40.6081 200.815 40.6499C203.251 41.5461 205.134 42.8514 206.462 44.5659C207.791 46.2414 208.456 48.2287 208.456 50.5276C208.456 52.9435 207.769 55.0671 206.396 56.8985C205.067 58.7299 203.185 60.1521 200.749 61.1652ZM197.494 45.9687C196.253 44.9556 194.548 44.449 192.378 44.449H181.615V55.9633H192.378C194.548 55.9633 196.253 55.4568 197.494 54.4437C198.778 53.3916 199.42 51.9499 199.42 50.1185C199.42 48.365 198.778 46.9818 197.494 45.9687ZM195.899 28.9018C194.792 27.9666 193.286 27.499 191.381 27.499H181.615V37.9613H191.381C193.286 37.9613 194.792 37.4937 195.899 36.5585C197.006 35.5844 197.56 34.2595 197.56 32.584C197.56 31.0254 197.006 29.798 195.899 28.9018Z" fill="#273852"/>
<path fill-rule="evenodd" clip-rule="evenodd" d="M245.57 23.5246C241.982 21.7321 237.774 20.8359 232.947 20.8359H216.603V62.6264H232.947C237.774 62.6264 241.982 61.7302 245.57 59.9378C249.201 58.1454 252.014 55.6906 254.007 52.5733C256.044 49.4171 257.063 45.7933 257.063 41.702C257.063 37.6106 256.044 34.0063 254.007 30.889C252.014 27.7328 249.201 25.278 245.57 23.5246ZM240.72 54.093C238.549 55.2619 235.958 55.8464 232.947 55.8464H225.572V27.6159H232.947C235.958 27.6159 238.549 28.2004 240.72 29.3694C242.934 30.5383 244.639 32.1749 245.835 34.279C247.031 36.3832 247.629 38.8575 247.629 41.702C247.629 44.5464 247.031 47.0402 245.835 49.1833C244.639 51.2875 242.934 52.924 240.72 54.093Z" fill="#273852"/>
<defs>
<linearGradient id="paint0_linear_1658_7606" x1="36.3766" y1="38.9791" x2="88.6287" y2="129.681" gradientUnits="userSpaceOnUse">
<stop stop-color="#35FBA9"/>
<stop offset="1" stop-color="#25B59D"/>
</linearGradient>
<linearGradient id="paint1_linear_1658_7606" x1="37.178" y1="53.1662" x2="73.2164" y2="46.3395" gradientUnits="userSpaceOnUse">
<stop stop-color="#35FBA9"/>
<stop offset="1" stop-color="#25B59D"/>
</linearGradient>
<linearGradient id="paint2_linear_1658_7606" x1="52.1276" y1="53.1662" x2="16.0892" y2="46.3395" gradientUnits="userSpaceOnUse">
<stop stop-color="#35FBA9"/>
<stop offset="1" stop-color="#25B59D"/>
</linearGradient>
</defs>
</svg>
