<svg width="256" height="120" viewBox="0 0 256 120" fill="none" xmlns="http://www.w3.org/2000/svg">
<path d="M42.2764 1.2052C41.9492 1.41341 41.1108 2.15371 40.436 2.87088C31.3566 12.4023 20.5596 17.1679 6.5929 17.8157C2.7076 18.0008 2.42131 18.0702 1.56246 18.903C0.110578 20.3605 0.171925 19.8747 0.049231 31.812C-0.13481 48.839 0.171925 56.4271 1.39886 65.1256C4.07768 84.0958 11.5416 98.4391 23.9745 108.433C28.2279 111.857 33.5651 115.096 39.209 117.664C42.215 119.029 42.6035 119.144 44.0145 119.144C45.4051 119.144 45.814 119.029 48.5133 117.78C52.0714 116.16 55.834 114.147 58.3902 112.528C74.3608 102.256 83.5629 86.8025 86.6302 65.1025C87.8571 56.427 88.1639 48.8158 87.9798 31.812C87.8571 19.8747 87.9185 20.3605 86.4666 18.903C85.6077 18.0702 85.3215 18.0008 81.4362 17.8157C67.5104 17.1911 56.6315 12.3791 47.6749 2.96342C46.9592 2.19998 46.0799 1.39028 45.7118 1.18207C44.8734 0.71938 43.0739 0.71938 42.2764 1.2052ZM45.9981 12.6336C54.7911 20.615 65.854 25.265 78.1848 26.1441L80.3524 26.306L80.4955 35.6061C80.7409 51.9852 80.0661 61.3084 77.9598 70.7473C74.8311 84.8824 68.0012 95.5242 57.061 103.436C54.6684 105.171 48.4724 108.665 45.814 109.798L44.0145 110.538L42.2355 109.798C39.1068 108.479 32.788 104.824 29.9047 102.65C19.5985 94.8764 13.1161 84.466 10.0692 70.7473C7.96298 61.3084 7.28817 51.9852 7.53356 35.6061L7.6767 26.306L9.84429 26.1441C16.9196 25.6351 24.6493 23.5762 30.3955 20.6612C34.3626 18.6486 38.9598 15.4097 41.8636 12.6336C42.5997 11.9396 43.81 11.0142 43.9532 11.0142C44.0963 10.9911 45.0165 11.7314 45.9981 12.6336Z" fill="white"/>
<path d="M42.2764 1.2052C41.9492 1.41341 41.1108 2.15371 40.436 2.87088C31.3566 12.4023 20.5596 17.1679 6.5929 17.8157C2.7076 18.0008 2.42131 18.0702 1.56246 18.903C0.110578 20.3605 0.171925 19.8747 0.049231 31.812C-0.13481 48.839 0.171925 56.4271 1.39886 65.1256C4.07768 84.0958 11.5416 98.4391 23.9745 108.433C28.2279 111.857 33.5651 115.096 39.209 117.664C42.215 119.029 42.6035 119.144 44.0145 119.144C45.4051 119.144 45.814 119.029 48.5133 117.78C52.0714 116.16 55.834 114.147 58.3902 112.528C74.3608 102.256 83.5629 86.8025 86.6302 65.1025C87.8571 56.427 88.1639 48.8158 87.9798 31.812C87.8571 19.8747 87.9185 20.3605 86.4666 18.903C85.6077 18.0702 85.3215 18.0008 81.4362 17.8157C67.5104 17.1911 56.6315 12.3791 47.6749 2.96342C46.9592 2.19998 46.0799 1.39028 45.7118 1.18207C44.8734 0.71938 43.0739 0.71938 42.2764 1.2052ZM45.9981 12.6336C54.7911 20.615 65.854 25.265 78.1848 26.1441L80.3524 26.306L80.4955 35.6061C80.7409 51.9852 80.0661 61.3084 77.9598 70.7473C74.8311 84.8824 68.0012 95.5242 57.061 103.436C54.6684 105.171 48.4724 108.665 45.814 109.798L44.0145 110.538L42.2355 109.798C39.1068 108.479 32.788 104.824 29.9047 102.65C19.5985 94.8764 13.1161 84.466 10.0692 70.7473C7.96298 61.3084 7.28817 51.9852 7.53356 35.6061L7.6767 26.306L9.84429 26.1441C16.9196 25.6351 24.6493 23.5762 30.3955 20.6612C34.3626 18.6486 38.9598 15.4097 41.8636 12.6336C42.5997 11.9396 43.81 11.0142 43.9532 11.0142C44.0963 10.9911 45.0165 11.7314 45.9981 12.6336Z" fill="white"/>
<path fill-rule="evenodd" clip-rule="evenodd" d="M22.0788 36.3313L25.9903 32.776L58.5045 68.5481L58.4985 68.5536L66.9324 70.6011L65.1666 79.805L55.8385 80.6863L54.6029 72.0944L54.593 72.1034L33.289 48.6647L27.424 53.9955L17.7071 43.305L23.5721 37.9742L22.0788 36.3313ZM23.5729 37.975L25.0678 39.6197L23.2499 41.2721L21.755 39.6274L23.5729 37.975ZM24.013 50.2392L26.6272 47.8631L28.2175 49.6128L25.6034 51.9889L24.013 50.2392ZM67.0186 80.9362L68.4854 73.2905L70.2217 85.3648L58.3719 82.4879L66.1164 81.7562L66.875 81.6846L67.0186 80.9362Z" fill="white"/>
<path fill-rule="evenodd" clip-rule="evenodd" d="M22.0788 36.3313L25.9903 32.776L58.5045 68.5481L58.4985 68.5536L66.9324 70.6011L65.1666 79.805L55.8385 80.6863L54.6029 72.0944L54.593 72.1034L33.289 48.6647L27.424 53.9955L17.7071 43.305L23.5721 37.9742L22.0788 36.3313ZM23.5729 37.975L25.0678 39.6197L23.2499 41.2721L21.755 39.6274L23.5729 37.975ZM24.013 50.2392L26.6272 47.8631L28.2175 49.6128L25.6034 51.9889L24.013 50.2392ZM67.0186 80.9362L68.4854 73.2905L70.2217 85.3648L58.3719 82.4879L66.1164 81.7562L66.875 81.6846L67.0186 80.9362Z" fill="white"/>
<path fill-rule="evenodd" clip-rule="evenodd" d="M65.8528 36.3313L61.9413 32.7761L29.4272 68.5481L29.4331 68.5535L20.9992 70.6011L22.7649 79.805L32.0932 80.6862L33.3287 72.0944L33.3386 72.1034L54.6427 48.6647L60.5076 53.9955L70.2245 43.305L66.1573 39.6082L64.663 41.2522L62.8652 39.6182L65.8528 36.3313ZM63.9186 50.2392L61.3045 47.8631L59.7141 49.6128L62.3283 51.9889L63.9186 50.2392ZM20.913 80.9361L19.4462 73.2907L17.7099 85.3648L29.5599 82.4878L21.8152 81.7562L21.0565 81.6845L20.913 80.9361Z" fill="white"/>
<path fill-rule="evenodd" clip-rule="evenodd" d="M65.8528 36.3313L61.9413 32.7761L29.4272 68.5481L29.4331 68.5535L20.9992 70.6011L22.7649 79.805L32.0932 80.6862L33.3287 72.0944L33.3386 72.1034L54.6427 48.6647L60.5076 53.9955L70.2245 43.305L66.1573 39.6082L64.663 41.2522L62.8652 39.6182L65.8528 36.3313ZM63.9186 50.2392L61.3045 47.8631L59.7141 49.6128L62.3283 51.9889L63.9186 50.2392ZM20.913 80.9361L19.4462 73.2907L17.7099 85.3648L29.5599 82.4878L21.8152 81.7562L21.0565 81.6845L20.913 80.9361Z" fill="white"/>
<g opacity="0.75">
<path d="M251.193 81.8203L242.429 89.1961V74.2754H239.581V98.1013H242.429V90.4137L251.895 98.1013H256L245.458 89.6592L255.001 81.8203H251.193Z" fill="white"/>
<path d="M166.51 97.1747C167.176 97.7924 168.149 98.1013 169.431 98.1013H173.499V95.9172H170.134C169.542 95.9172 169.098 95.7738 168.803 95.487C168.507 95.1782 168.359 94.759 168.359 94.2296V84.0043H173.24V81.8203H168.359V77.0551H165.512V81.8203H162.036V84.0043H165.512V94.4612C165.512 95.6304 165.844 96.5349 166.51 97.1747Z" fill="white"/>
<path d="M137.167 83.1439C138.375 84.3573 138.979 86.1221 138.979 88.4386V98.1013H136.132V88.7364C136.132 87.0156 135.725 85.7251 134.912 84.8647C134.123 83.9822 133.05 83.541 131.694 83.541C130.708 83.541 129.784 83.7947 128.921 84.3021C128.058 84.7875 127.356 85.5706 126.813 86.6516C126.271 87.7105 126 89.0894 126 90.788V98.1013H123.152V81.8203H125.963V85.1475C126.21 84.5384 126.519 84.014 126.887 83.5741C127.577 82.7578 128.391 82.1732 129.328 81.8203C130.265 81.4673 131.238 81.2908 132.249 81.2908C134.345 81.2908 135.984 81.9085 137.167 83.1439Z" fill="white"/>
<path fill-rule="evenodd" clip-rule="evenodd" d="M158.018 93.4354L159.941 95.0899C158.98 96.2812 157.846 97.1747 156.539 97.7704C155.257 98.3439 153.84 98.6307 152.287 98.6307C150.462 98.6307 148.848 98.2557 147.442 97.5056C146.062 96.7556 144.977 95.7297 144.188 94.4281C143.424 93.1045 143.042 91.6153 143.042 89.9608C143.042 88.3062 143.424 86.8281 144.188 85.5265C144.977 84.2028 146.037 83.166 147.368 82.4159C148.724 81.6658 150.24 81.2908 151.917 81.2908C153.568 81.2908 155.023 81.6548 156.28 82.3828C157.562 83.1108 158.561 84.1256 159.275 85.4272C159.99 86.7068 160.348 88.1849 160.348 89.8615V90.8542H146.05C146.148 91.7395 146.39 92.5447 146.777 93.2699C147.319 94.2406 148.071 95.0127 149.032 95.5863C150.018 96.1378 151.165 96.4136 152.471 96.4136C153.605 96.4136 154.628 96.1709 155.541 95.6856C156.453 95.2003 157.279 94.4502 158.018 93.4354ZM155.947 85.2618C156.763 86.187 157.249 87.3563 157.407 88.7695H146.075C146.182 87.9749 146.404 87.2469 146.74 86.5854C147.257 85.6147 147.96 84.8647 148.848 84.3352C149.76 83.7837 150.783 83.5079 151.917 83.5079C153.593 83.5079 154.937 84.0925 155.947 85.2618Z" fill="white"/>
<path d="M201.155 81.8203L195.683 98.1013H192.502L188.325 85.0179L184.182 98.1013H180.965L175.566 81.8203H178.488L182.621 95.354L186.919 81.8203H189.803L194.107 95.479L198.345 81.8203H201.155Z" fill="white"/>
<path fill-rule="evenodd" clip-rule="evenodd" d="M208.203 97.5056C209.583 98.2557 211.149 98.6307 212.899 98.6307C214.674 98.6307 216.252 98.2557 217.632 97.5056C219.013 96.7556 220.085 95.7297 220.849 94.4281C221.638 93.1265 222.033 91.6374 222.033 89.9608C222.033 88.2841 221.638 86.795 220.849 85.4934C220.085 84.1918 219.013 83.166 217.632 82.4159C216.252 81.6658 214.674 81.2908 212.899 81.2908C211.149 81.2908 209.583 81.6658 208.203 82.4159C206.822 83.166 205.737 84.1918 204.949 85.4934C204.184 86.795 203.802 88.2841 203.802 89.9608C203.802 91.6374 204.184 93.1265 204.949 94.4281C205.737 95.7297 206.822 96.7556 208.203 97.5056ZM216.116 95.5863C215.204 96.1378 214.132 96.4136 212.899 96.4136C211.691 96.4136 210.631 96.1378 209.719 95.5863C208.807 95.0348 208.092 94.2737 207.574 93.303C207.056 92.3323 206.797 91.2182 206.797 89.9608C206.797 88.6812 207.056 87.5671 207.574 86.6185C208.092 85.6478 208.807 84.8867 209.719 84.3352C210.631 83.7837 211.691 83.5079 212.899 83.5079C214.132 83.5079 215.204 83.7837 216.116 84.3352C217.028 84.8867 217.743 85.6478 218.261 86.6185C218.779 87.5671 219.037 88.6812 219.037 89.9608C219.037 91.2182 218.779 92.3323 218.261 93.303C217.743 94.2737 217.028 95.0348 216.116 95.5863Z" fill="white"/>
<path d="M232.778 82.085C233.74 81.732 234.713 81.5555 235.699 81.5555H236.291V84.0043H235.662C234.528 84.0043 233.468 84.269 232.482 84.7985C231.521 85.3059 230.744 86.1001 230.153 87.1811C229.561 88.24 229.265 89.6078 229.265 91.2844V98.1013H226.418V81.8203H229.228V85.4139C229.49 84.79 229.823 84.254 230.227 83.8057C230.966 83.0115 231.817 82.438 232.778 82.085Z" fill="white"/>
</g>
<path d="M149.58 53.6961C151.368 51.8545 152.262 49.3799 152.262 46.2722V21.3535H161.027V46.2722C161.027 51.6818 159.348 55.9021 155.99 58.933C152.632 61.9256 148.01 63.4218 142.122 63.4218C136.235 63.4218 131.591 61.9256 128.189 58.933C124.831 55.9021 123.152 51.6818 123.152 46.2722V21.3535H131.983V46.2722C131.983 49.3799 132.877 51.8545 134.665 53.6961C136.453 55.4993 138.939 56.4009 142.122 56.4009C145.306 56.4009 147.792 55.4993 149.58 53.6961Z" fill="white"/>
<path fill-rule="evenodd" clip-rule="evenodd" d="M198.338 61.0623C195.983 62.0215 193.214 62.5011 190.03 62.5011H170.668V21.3535H189.638C192.516 21.3535 195.023 21.7947 197.16 22.6771C199.341 23.5596 201.042 24.8065 202.263 26.4178C203.484 28.0292 204.094 29.9091 204.094 32.0576C204.094 34.091 203.484 35.8942 202.263 37.4672C201.22 38.8106 199.827 39.9022 198.085 40.7418C198.192 40.7812 198.298 40.8214 198.403 40.8626C200.802 41.745 202.655 43.0303 203.963 44.7184C205.272 46.3682 205.926 48.3248 205.926 50.5884C205.926 52.9671 205.25 55.0581 203.898 56.8613C202.59 58.6645 200.736 60.0648 198.338 61.0623ZM195.133 46.0996C193.911 45.1021 192.232 44.6033 190.096 44.6033H179.499V55.9405H190.096C192.232 55.9405 193.911 55.4417 195.133 54.4442C196.397 53.4083 197.03 51.9888 197.03 50.1856C197.03 48.4591 196.397 47.0971 195.133 46.0996ZM193.563 29.2953C192.472 28.3745 190.99 27.9141 189.114 27.9141H179.499V38.2154H189.114C190.99 38.2154 192.472 37.755 193.563 36.8342C194.653 35.875 195.198 34.5706 195.198 32.9209C195.198 31.3862 194.653 30.1777 193.563 29.2953Z" fill="white"/>
<path fill-rule="evenodd" clip-rule="evenodd" d="M242.469 24.0008C238.937 22.2359 234.794 21.3535 230.04 21.3535H213.948V62.5011H230.04C234.794 62.5011 238.937 61.6186 242.469 59.8538C246.045 58.089 248.814 55.6719 250.777 52.6026C252.783 49.495 253.786 45.9269 253.786 41.8985C253.786 37.8701 252.783 34.3212 250.777 31.2519C248.814 28.1443 246.045 25.7272 242.469 24.0008ZM237.694 54.0989C235.557 55.2499 233.006 55.8254 230.04 55.8254H222.779V28.0292H230.04C233.006 28.0292 235.557 28.6047 237.694 29.7557C239.874 30.9067 241.553 32.518 242.731 34.5898C243.908 36.6616 244.497 39.0978 244.497 41.8985C244.497 44.6992 243.908 47.1547 242.731 49.2648C241.553 51.3366 239.874 52.9479 237.694 54.0989Z" fill="white"/>
</svg>
