<svg width="260" height="121" viewBox="0 0 260 121" fill="none" xmlns="http://www.w3.org/2000/svg">
<path d="M42.9369 0.373051C42.6046 0.584514 41.7531 1.33638 41.0678 2.06476C31.8466 11.7451 20.8808 16.5852 6.69592 17.2431C2.7499 17.4311 2.45914 17.5016 1.58687 18.3474C0.112306 19.8277 0.174611 19.3342 0.0500002 31.4581C-0.136916 48.7511 0.174611 56.4577 1.42072 65.2922C4.14139 84.5588 11.7219 99.1263 24.3491 109.276C28.669 112.754 34.0896 116.043 39.8217 118.651C42.8746 120.038 43.2692 120.155 44.7023 120.155C46.1145 120.155 46.5299 120.038 49.2713 118.769C52.885 117.124 56.7064 115.08 59.3025 113.435C75.5227 103.003 84.8685 87.3078 87.9838 65.2687C89.2299 56.4577 89.5414 48.7276 89.3545 31.4581C89.2299 19.3342 89.2922 19.8277 87.8176 18.3474C86.9454 17.5016 86.6546 17.4311 82.7086 17.2431C68.5652 16.6087 57.5164 11.7216 48.4198 2.15874C47.6929 1.38337 46.7999 0.561018 46.426 0.349555C45.5745 -0.120363 43.7469 -0.120363 42.9369 0.373051ZM46.7168 11.98C55.6472 20.0861 66.883 24.8088 79.4064 25.7016L81.6079 25.8661L81.7532 35.3114C82.0025 51.9465 81.3171 61.4154 79.1779 71.0017C76.0004 85.3577 69.0637 96.1658 57.9525 104.201C55.5226 105.964 49.2298 109.511 46.5299 110.663L44.7023 111.415L42.8954 110.663C39.7178 109.323 33.3004 105.611 30.372 103.403C19.9047 95.5079 13.3211 84.9348 10.2266 71.0017C8.08741 61.4154 7.40205 51.9465 7.65127 35.3114L7.79665 25.8661L9.99811 25.7016C17.184 25.1847 25.0345 23.0936 30.8704 20.1331C34.8995 18.089 39.5686 14.7995 42.5177 11.98C43.2653 11.2751 44.4946 10.3353 44.6399 10.3353C44.7853 10.3118 45.7199 11.0637 46.7168 11.98Z" fill="#273852"/>
<path fill-rule="evenodd" clip-rule="evenodd" d="M22.4299 36.0431L26.4025 32.4323L59.4247 68.7633L59.4147 68.7723L67.9769 70.851L66.184 80.1967L56.7085 81.0919L55.4545 72.3719L55.4521 72.3741L22.4299 36.0431ZM22.0953 39.4004L23.6135 41.0707L25.4616 39.3909L33.8121 48.5782L27.8533 53.9944L17.9846 43.1368L22.0953 39.4004ZM24.3908 50.184L27.0458 47.7708L28.661 49.5478L26.006 51.961L24.3908 50.184ZM68.0648 81.3456L69.5536 73.585L71.3167 85.8452L59.2768 82.9221L67.1485 82.1784L67.919 82.1056L68.0648 81.3456Z" fill="#273852"/>
<path fill-rule="evenodd" clip-rule="evenodd" d="M66.875 36.0406L62.9024 32.4298L29.8802 68.7608L29.8901 68.7698L21.328 70.8485L23.1209 80.1942L32.5964 81.0894L33.8503 72.3694L33.8528 72.3716L55.4906 48.5656L61.4477 53.9801L71.3164 43.1226L67.1852 39.3676L65.668 41.0369L63.8421 39.3774L66.875 36.0406ZM64.9101 50.1697L62.2552 47.7566L60.64 49.5336L63.295 51.9468L64.9101 50.1697ZM21.24 81.3431L19.7512 73.5825L17.9881 85.8427L30.0281 82.9196L22.1563 82.1759L21.3858 82.1031L21.24 81.3431Z" fill="#273852"/>
<g opacity="0.75">
<path d="M255.118 82.2448L246.217 89.7359V74.582H243.325V98.7802H246.217V90.9725L255.831 98.7802H260L249.294 90.2062L258.986 82.2448H255.118Z" fill="#30425A"/>
<path d="M169.112 97.8392C169.788 98.4665 170.777 98.7802 172.079 98.7802H176.21V96.562H172.793C172.192 96.562 171.741 96.4164 171.441 96.1251C171.14 95.8114 170.99 95.3857 170.99 94.848V84.4629H175.947V82.2448H170.99V77.4051H168.098V82.2448H164.568V84.4629H168.098V95.0833C168.098 96.2708 168.436 97.1894 169.112 97.8392Z" fill="#30425A"/>
<path d="M139.311 83.5891C140.538 84.8214 141.151 86.6139 141.151 88.9665V98.7802H138.259V89.269C138.259 87.5213 137.846 86.2106 137.02 85.3368C136.219 84.4405 135.13 83.9924 133.753 83.9924C132.751 83.9924 131.812 84.2501 130.936 84.7654C130.06 85.2583 129.346 86.0538 128.795 87.1516C128.244 88.2271 127.969 89.6275 127.969 91.3527V98.7802H125.077V82.2448H127.931V85.624C128.183 85.0054 128.496 84.4728 128.87 84.026C129.571 83.197 130.398 82.6033 131.349 82.2448C132.3 81.8863 133.289 81.707 134.316 81.707C136.444 81.707 138.109 82.3344 139.311 83.5891Z" fill="#30425A"/>
<path fill-rule="evenodd" clip-rule="evenodd" d="M160.488 94.0414L162.441 95.7218C161.464 96.9317 160.312 97.8392 158.986 98.4441C157.684 99.0267 156.244 99.3179 154.667 99.3179C152.814 99.3179 151.174 98.937 149.747 98.1752C148.345 97.4134 147.243 96.3716 146.442 95.0496C145.666 93.7053 145.277 92.1929 145.277 90.5125C145.277 88.8321 145.666 87.3309 146.442 86.0089C147.243 84.6646 148.32 83.6115 149.672 82.8497C151.049 82.0879 152.588 81.707 154.291 81.707C155.968 81.707 157.446 82.0767 158.723 82.8161C160.025 83.5555 161.039 84.5862 161.765 85.9081C162.491 87.2076 162.854 88.7088 162.854 90.4117V91.4199H148.332C148.432 92.319 148.678 93.1368 149.071 93.8733C149.621 94.8592 150.385 95.6434 151.362 96.2259C152.363 96.7861 153.527 97.0662 154.854 97.0662C156.006 97.0662 157.045 96.8197 157.971 96.3268C158.898 95.8338 159.737 95.0721 160.488 94.0414ZM158.385 85.7401C159.213 86.6798 159.707 87.8673 159.867 89.3026H148.358C148.467 88.4956 148.692 87.7562 149.033 87.0844C149.559 86.0986 150.272 85.3368 151.174 84.799C152.1 84.2389 153.139 83.9588 154.291 83.9588C155.994 83.9588 157.358 84.5526 158.385 85.7401Z" fill="#30425A"/>
<path d="M204.299 82.2448L198.741 98.7802H195.511L191.268 85.4924L187.061 98.7802H183.793L178.31 82.2448H181.277L185.475 95.99L189.84 82.2448H192.769L197.141 96.1169L201.445 82.2448H204.299Z" fill="#30425A"/>
<path fill-rule="evenodd" clip-rule="evenodd" d="M211.456 98.1752C212.858 98.937 214.448 99.3179 216.226 99.3179C218.029 99.3179 219.631 98.937 221.033 98.1752C222.435 97.4134 223.524 96.3716 224.301 95.0496C225.102 93.7277 225.502 92.2153 225.502 90.5125C225.502 88.8097 225.102 87.2973 224.301 85.9753C223.524 84.6534 222.435 83.6115 221.033 82.8497C219.631 82.0879 218.029 81.707 216.226 81.707C214.448 81.707 212.858 82.0879 211.456 82.8497C210.054 83.6115 208.953 84.6534 208.151 85.9753C207.375 87.2973 206.987 88.8097 206.987 90.5125C206.987 92.2153 207.375 93.7277 208.151 95.0496C208.953 96.3716 210.054 97.4134 211.456 98.1752ZM219.493 96.2259C218.567 96.7861 217.478 97.0662 216.226 97.0662C214.999 97.0662 213.923 96.7861 212.996 96.2259C212.07 95.6658 211.344 94.8928 210.818 93.907C210.292 92.9211 210.029 91.7896 210.029 90.5125C210.029 89.213 210.292 88.0815 210.818 87.118C211.344 86.1322 212.07 85.3592 212.996 84.799C213.923 84.2389 214.999 83.9588 216.226 83.9588C217.478 83.9588 218.567 84.2389 219.493 84.799C220.42 85.3592 221.146 86.1322 221.672 87.118C222.197 88.0815 222.46 89.213 222.46 90.5125C222.46 91.7896 222.197 92.9211 221.672 93.907C221.146 94.8928 220.42 95.6658 219.493 96.2259Z" fill="#30425A"/>
<path d="M236.416 82.5137C237.392 82.1552 238.381 81.9759 239.383 81.9759H239.984V84.4629H239.345C238.193 84.4629 237.117 84.7318 236.115 85.2696C235.139 85.7849 234.35 86.5915 233.749 87.6894C233.148 88.7648 232.848 90.154 232.848 91.8568V98.7802H229.956V82.2448H232.81V85.8946C233.077 85.2609 233.415 84.7165 233.824 84.2613C234.575 83.4547 235.439 82.8721 236.416 82.5137Z" fill="#30425A"/>
</g>
<path d="M151.917 53.6838C153.733 51.8135 154.641 49.3002 154.641 46.144V20.8359H163.544V46.144C163.544 51.6382 161.839 55.9244 158.428 59.0026C155.018 62.0419 150.323 63.5616 144.344 63.5616C138.364 63.5616 133.647 62.0419 130.193 59.0026C126.782 55.9244 125.077 51.6382 125.077 46.144V20.8359H134.046V46.144C134.046 49.3002 134.954 51.8135 136.77 53.6838C138.586 55.5152 141.11 56.4309 144.344 56.4309C147.577 56.4309 150.101 55.5152 151.917 53.6838Z" fill="#273852"/>
<path fill-rule="evenodd" clip-rule="evenodd" d="M201.437 61.1652C199.046 62.1393 196.233 62.6264 193 62.6264H173.335V20.8359H192.601C195.525 20.8359 198.071 21.284 200.242 22.1802C202.456 23.0765 204.183 24.3428 205.424 25.9794C206.664 27.6159 207.284 29.5252 207.284 31.7073C207.284 33.7725 206.664 35.6039 205.424 37.2014C204.364 38.5658 202.95 39.6744 201.18 40.5272C201.289 40.5672 201.397 40.6081 201.504 40.6499C203.94 41.5461 205.822 42.8514 207.151 44.5659C208.48 46.2414 209.144 48.2287 209.144 50.5276C209.144 52.9435 208.457 55.0671 207.084 56.8985C205.756 58.7299 203.873 60.1521 201.437 61.1652ZM198.182 45.9687C196.942 44.9556 195.237 44.449 193.066 44.449H182.304V55.9633H193.066C195.237 55.9633 196.942 55.4568 198.182 54.4437C199.466 53.3916 200.109 51.9499 200.109 50.1185C200.109 48.365 199.466 46.9818 198.182 45.9687ZM196.588 28.9018C195.48 27.9666 193.974 27.499 192.07 27.499H182.304V37.9613H192.07C193.974 37.9613 195.48 37.4937 196.588 36.5585C197.695 35.5844 198.248 34.2595 198.248 32.584C198.248 31.0254 197.695 29.798 196.588 28.9018Z" fill="#273852"/>
<path fill-rule="evenodd" clip-rule="evenodd" d="M246.258 23.5246C242.67 21.7321 238.463 20.8359 233.635 20.8359H217.292V62.6264H233.635C238.463 62.6264 242.67 61.7302 246.258 59.9378C249.89 58.1454 252.702 55.6906 254.695 52.5733C256.733 49.4171 257.752 45.7933 257.752 41.702C257.752 37.6106 256.733 34.0063 254.695 30.889C252.702 27.7328 249.89 25.278 246.258 23.5246ZM241.408 54.093C239.238 55.2619 236.647 55.8464 233.635 55.8464H226.261V27.6159H233.635C236.647 27.6159 239.238 28.2004 241.408 29.3694C243.623 30.5383 245.328 32.1749 246.524 34.279C247.72 36.3832 248.318 38.8575 248.318 41.702C248.318 44.5464 247.72 47.0402 246.524 49.1833C245.328 51.2875 243.623 52.924 241.408 54.093Z" fill="#273852"/>
</svg>
