<svg width="72" height="72" viewBox="0 0 72 72" fill="none" xmlns="http://www.w3.org/2000/svg">
<g clip-path="url(#clip0_841_1777)">
<circle cx="36" cy="36" r="34.2857" fill="url(#paint0_linear_841_1777)" stroke="white" stroke-width="3.42857"/>
<path d="M46.5597 40.8307V50.4788C46.5597 50.7589 46.4525 51.0284 46.26 51.232L43.0817 54.5928C42.8746 54.8117 42.5866 54.9358 42.2852 54.9358H29.6249C29.3236 54.9358 29.0355 54.8117 28.8285 54.5928L25.5696 51.3607C25.4866 51.2784 25.4399 51.1663 25.4399 51.0494V49.3087C25.4399 49.0666 25.2436 48.8702 25.0014 48.8702H22.8919C22.7958 48.8702 22.7023 48.9018 22.6259 48.9601L20.1315 50.8635C20.0228 50.9464 19.959 51.0753 19.959 51.2121V52.7546C19.959 53.0347 20.0662 53.3042 20.2587 53.5078L26.4681 60.0737C26.6751 60.2927 26.9632 60.4167 27.2645 60.4167H32.8209C33.063 60.4167 33.2594 60.613 33.2594 60.8552V69.8634C33.2594 70.1056 33.4557 70.3019 33.6978 70.3019H38.3018C38.544 70.3019 38.7403 70.1056 38.7403 69.8634V60.8552C38.7403 60.613 38.9366 60.4167 39.1787 60.4167H44.6275C44.928 60.4167 45.2153 60.2934 45.4223 60.0755L51.7392 53.4261C51.9327 53.2224 52.0406 52.9521 52.0406 52.6711V38.1613C52.0406 37.8812 51.9334 37.6117 51.7409 37.4081L50.682 36.5732L46.5597 40.8307Z" fill="white"/>
<path d="M33.2593 11.0384C33.2593 11.2805 33.063 11.4769 32.8209 11.4769H27.3721C27.0716 11.4769 26.7843 11.6002 26.5773 11.818L20.2604 18.4674C20.0669 18.6711 19.959 18.9414 19.959 19.2224V33.7322C19.959 34.0124 20.0662 34.2819 20.2587 34.4854L21.4083 35.701L25.4399 31.4996V21.4148C25.4399 21.1346 25.5471 20.8651 25.7396 20.6616L28.9179 17.3008C29.125 17.0818 29.413 16.9578 29.7144 16.9578H42.3747C42.676 16.9578 42.9641 17.0818 43.1711 17.3008L46.2599 20.5669C46.4524 20.7705 46.5597 21.04 46.5597 21.3201V22.5848C46.5597 22.827 46.756 23.0233 46.9982 23.0233H48.92C49.1663 23.0233 49.4053 22.9404 49.5987 22.788L51.8736 20.9947C51.9791 20.9115 52.0406 20.7846 52.0406 20.6503V19.139C52.0406 18.8588 51.9334 18.5893 51.7409 18.3858L45.5315 11.8198C45.3245 11.6009 45.0364 11.4769 44.7351 11.4769H39.1787C38.9366 11.4769 38.7402 11.2805 38.7402 11.0384V1.46337C38.7402 0.857966 38.2495 0.367188 37.6441 0.367188H34.3555C33.7501 0.367188 33.2593 0.857965 33.2593 1.46337V11.0384Z" fill="white"/>
<path d="M25.6371 32.1783C25.6679 32.2225 25.7022 32.2646 25.7396 32.3042L28.8708 35.6153C28.9221 35.6695 28.9783 35.7179 29.0385 35.76C28.8591 35.8348 28.6953 35.9468 28.559 36.0909L25.5173 39.3073C25.3953 39.4362 25.3001 39.5859 25.2351 39.7476L21.8294 36.1464L25.6371 32.1783Z" fill="white"/>
<path d="M25.7172 40.2879V40.2708C25.7172 40.0689 25.7945 39.8747 25.9332 39.728L28.9749 36.5116C29.1242 36.3538 29.3318 36.2644 29.549 36.2644H42.4369C42.8257 36.2644 43.1971 36.1029 43.4623 35.8186L46.1844 32.9007C46.617 32.3436 46.5308 32.2733 46.5401 31.8215C46.543 31.6787 46.5308 31.5243 46.5308 31.5243C46.5373 30.9372 46.5308 30.4043 46.5308 30.4043C46.5308 30.1621 46.7271 29.9658 46.9693 29.9658H49.1199C49.2179 29.9658 49.3132 29.9987 49.3904 30.0592L51.5919 31.7853C51.8569 31.9931 52.0117 32.3112 52.0117 32.6479V33.8222C52.0117 34.1051 51.9023 34.3771 51.7065 34.5812L45.4492 41.102C45.2425 41.3174 44.9569 41.4392 44.6583 41.4392H27.278C26.9767 41.4392 26.6886 41.3151 26.4816 41.0962L25.7172 40.2879Z" fill="white"/>
<path d="M25.1333 42.7365C25.1333 42.8096 25.0741 42.8688 25.001 42.8688H22.8696C22.8365 42.8688 22.8046 42.8564 22.7802 42.834L20.3075 40.5657C20.2802 40.5406 20.2646 40.5052 20.2646 40.4681V38.094C20.2646 37.8901 20.3435 37.6941 20.4847 37.547L26.7419 31.0262C26.8909 30.871 27.0968 30.7832 27.312 30.7832H44.7864C44.943 30.7832 45.0927 30.848 45.2 30.9621C45.2 30.9621 46.107 31.83 46.1481 31.9714C46.1891 32.1128 46.1245 32.2028 45.9839 32.3434L43.0427 35.3993C42.8933 35.5603 42.6834 35.6519 42.4637 35.6519H29.5774C29.1919 35.6519 28.8234 35.8106 28.5585 36.0907L25.5168 39.3071C25.2705 39.5674 25.1333 39.9122 25.1333 40.2706V42.7365Z" fill="white"/>
</g>
<defs>
<linearGradient id="paint0_linear_841_1777" x1="14.5547" y1="10.5469" x2="59.3438" y2="63" gradientUnits="userSpaceOnUse">
<stop stop-color="#18D47A"/>
<stop offset="1" stop-color="#00A28E"/>
</linearGradient>
<clipPath id="clip0_841_1777">
<rect width="72" height="72" fill="white"/>
</clipPath>
</defs>
</svg>
