<svg width="156" height="72" viewBox="0 0 156 72" fill="none" xmlns="http://www.w3.org/2000/svg">
<g opacity="0.75">
<path d="M152.873 49.2841L147.539 53.773V44.6924H145.806V59.1925H147.539V54.514L153.301 59.1925H155.799L149.383 54.0548L155.191 49.2841H152.873Z" fill="#273852"/>
<path d="M101.336 58.6286C101.741 59.0046 102.334 59.1925 103.114 59.1925H105.59V57.8634H103.542C103.182 57.8634 102.911 57.7761 102.731 57.6015C102.551 57.4136 102.461 57.1585 102.461 56.8363V50.6133H105.432V49.2841H102.461V46.3841H100.729V49.2841H98.6131V50.6133H100.729V56.9772C100.729 57.6888 100.931 58.2393 101.336 58.6286Z" fill="#273852"/>
<path d="M83.4785 50.0897C84.2137 50.8281 84.5812 51.9022 84.5812 53.3119V59.1925H82.8484V53.4932C82.8484 52.4459 82.6008 51.6605 82.1057 51.1369C81.6256 50.5999 80.973 50.3313 80.1478 50.3313C79.5477 50.3313 78.9851 50.4857 78.46 50.7945C77.9348 51.0899 77.5073 51.5665 77.1772 52.2244C76.8471 52.8689 76.6821 53.708 76.6821 54.7418V59.1925H74.9492V49.2841H76.6596V51.309C76.8103 50.9383 76.9978 50.6192 77.2222 50.3515C77.6423 49.8547 78.1374 49.4989 78.7075 49.2841C79.2776 49.0693 79.8702 48.9619 80.4854 48.9619C81.7606 48.9619 82.7583 49.3378 83.4785 50.0897Z" fill="#273852"/>
<path fill-rule="evenodd" clip-rule="evenodd" d="M96.1682 56.3529L97.3384 57.3599C96.7533 58.0849 96.0631 58.6286 95.268 58.9911C94.4878 59.3402 93.6251 59.5148 92.6799 59.5148C91.5697 59.5148 90.587 59.2865 89.7318 58.83C88.8916 58.3735 88.2315 57.7492 87.7514 56.9571C87.2863 56.1515 87.0538 55.2453 87.0538 54.2383C87.0538 53.2314 87.2863 52.3318 87.7514 51.5397C88.2315 50.7341 88.8766 50.1031 89.6868 49.6466C90.512 49.1901 91.4347 48.9619 92.4549 48.9619C93.4601 48.9619 94.3453 49.1834 95.1104 49.6265C95.8906 50.0695 96.4982 50.6871 96.9333 51.4793C97.3684 52.258 97.586 53.1575 97.586 54.1779V54.7821H88.8844C88.9439 55.3208 89.0913 55.8109 89.3267 56.2522C89.6568 56.843 90.1144 57.3129 90.6995 57.662C91.2996 57.9976 91.9973 58.1654 92.7925 58.1654C93.4826 58.1654 94.1052 58.0178 94.6603 57.7224C95.2155 57.427 95.7181 56.9705 96.1682 56.3529ZM94.9079 51.3786C95.404 51.9417 95.7001 52.6532 95.7961 53.5133H88.8998C88.965 53.0297 89.0998 52.5867 89.3042 52.1841C89.6193 51.5934 90.0469 51.1369 90.587 50.8147C91.1421 50.479 91.7647 50.3112 92.4549 50.3112C93.4751 50.3112 94.2928 50.667 94.9079 51.3786Z" fill="#273852"/>
<path d="M122.421 49.2841L119.09 59.1925H117.155L114.613 51.2301L112.091 59.1925H110.133L106.848 49.2841H108.626L111.141 57.5206L113.757 49.2841H115.512L118.131 57.5966L120.711 49.2841H122.421Z" fill="#273852"/>
<path fill-rule="evenodd" clip-rule="evenodd" d="M126.71 58.83C127.55 59.2865 128.503 59.5148 129.568 59.5148C130.648 59.5148 131.608 59.2865 132.449 58.83C133.289 58.3735 133.941 57.7492 134.406 56.9571C134.887 56.165 135.127 55.2587 135.127 54.2383C135.127 53.2179 134.887 52.3117 134.406 51.5195C133.941 50.7274 133.289 50.1031 132.449 49.6466C131.608 49.1901 130.648 48.9619 129.568 48.9619C128.503 48.9619 127.55 49.1901 126.71 49.6466C125.87 50.1031 125.21 50.7274 124.729 51.5195C124.264 52.3117 124.032 53.2179 124.032 54.2383C124.032 55.2587 124.264 56.165 124.729 56.9571C125.21 57.7492 125.87 58.3735 126.71 58.83ZM131.526 57.662C130.971 57.9976 130.318 58.1654 129.568 58.1654C128.833 58.1654 128.188 57.9976 127.633 57.662C127.077 57.3263 126.642 56.8631 126.327 56.2724C126.012 55.6816 125.855 55.0036 125.855 54.2383C125.855 53.4596 126.012 52.7816 126.327 52.2043C126.642 51.6135 127.077 51.1503 127.633 50.8147C128.188 50.479 128.833 50.3112 129.568 50.3112C130.318 50.3112 130.971 50.479 131.526 50.8147C132.081 51.1503 132.516 51.6135 132.831 52.2043C133.146 52.7816 133.304 53.4596 133.304 54.2383C133.304 55.0036 133.146 55.6816 132.831 56.2724C132.516 56.8631 132.081 57.3263 131.526 57.662Z" fill="#273852"/>
<path d="M141.666 49.4452C142.251 49.2304 142.844 49.123 143.444 49.123H143.804V50.6133H143.422C142.731 50.6133 142.086 50.7744 141.486 51.0966C140.901 51.4054 140.428 51.8888 140.068 52.5466C139.708 53.1911 139.528 54.0235 139.528 55.0439V59.1925H137.795V49.2841H139.506V51.4711C139.665 51.0915 139.868 50.7652 140.113 50.4924C140.563 50.0091 141.081 49.66 141.666 49.4452Z" fill="#273852"/>
</g>
<path d="M91.0326 32.1677C92.1207 31.0469 92.6648 29.5409 92.6648 27.6496V12.4844H97.9994V27.6496C97.9994 30.9418 96.9776 33.5102 94.934 35.3548C92.8904 37.1761 90.0771 38.0867 86.4942 38.0867C82.9113 38.0867 80.0848 37.1761 78.0146 35.3548C75.971 33.5102 74.9492 30.9418 74.9492 27.6496V12.4844H80.3236V27.6496C80.3236 29.5409 80.8677 31.0469 81.9558 32.1677C83.044 33.2651 84.5568 33.8138 86.4942 33.8138C88.4317 33.8138 89.9444 33.2651 91.0326 32.1677Z" fill="#273852"/>
<path fill-rule="evenodd" clip-rule="evenodd" d="M120.706 36.6507C119.273 37.2344 117.588 37.5263 115.65 37.5263H103.866V12.4844H115.411C117.163 12.4844 118.689 12.7529 119.99 13.2899C121.317 13.8269 122.352 14.5858 123.095 15.5665C123.838 16.5471 124.21 17.6912 124.21 18.9988C124.21 20.2363 123.838 21.3337 123.095 22.291C122.46 23.1086 121.613 23.7729 120.552 24.2839C120.617 24.3078 120.682 24.3323 120.746 24.3574C122.206 24.8944 123.334 25.6766 124.13 26.704C124.926 27.708 125.324 28.8988 125.324 30.2764C125.324 31.724 124.913 32.9966 124.09 34.094C123.294 35.1914 122.166 36.0436 120.706 36.6507ZM118.756 27.5445C118.012 26.9375 116.991 26.6339 115.69 26.6339H109.241V33.5336H115.69C116.991 33.5336 118.012 33.2301 118.756 32.623C119.525 31.9926 119.91 31.1286 119.91 30.0312C119.91 28.9805 119.525 28.1516 118.756 27.5445ZM117.8 17.3176C117.137 16.7573 116.234 16.4771 115.093 16.4771H109.241V22.7463H115.093C116.234 22.7463 117.137 22.4661 117.8 21.9057C118.464 21.322 118.795 20.5281 118.795 19.5241C118.795 18.5902 118.464 17.8547 117.8 17.3176Z" fill="#273852"/>
<path fill-rule="evenodd" clip-rule="evenodd" d="M147.564 14.0955C145.414 13.0214 142.893 12.4844 140 12.4844H130.207V37.5263H140C142.893 37.5263 145.414 36.9893 147.564 35.9152C149.74 34.8411 151.425 33.3702 152.62 31.5022C153.841 29.6109 154.451 27.4395 154.451 24.9878C154.451 22.5362 153.841 20.3764 152.62 18.5084C151.425 16.6172 149.74 15.1462 147.564 14.0955ZM144.658 32.4128C143.357 33.1133 141.805 33.4635 140 33.4635H135.581V16.5471H140C141.805 16.5471 143.357 16.8974 144.658 17.5978C145.985 18.2983 147.007 19.279 147.723 20.5398C148.44 21.8007 148.798 23.2833 148.798 24.9878C148.798 26.6923 148.44 28.1866 147.723 29.4708C147.007 30.7317 145.985 31.7124 144.658 32.4128Z" fill="#273852"/>
<path fill-rule="evenodd" clip-rule="evenodd" d="M25.7289 0.223542C25.5298 0.350256 25.0195 0.800794 24.6089 1.23725C19.0833 7.03794 12.5123 9.93828 4.01236 10.3325C1.64781 10.4451 1.47358 10.4874 0.950892 10.9942C0.92022 11.025 0.890659 11.0544 0.862163 11.0827C0.729688 11.2143 0.620262 11.323 0.529544 11.4455C0.0988752 12.0273 0.0898535 12.9212 0.0380027 18.0588C0.035445 18.3122 0.0327832 18.576 0.0299614 18.8505C-0.0820437 29.2129 0.104631 33.8309 0.851332 39.1247C2.48163 50.6698 7.02406 59.399 14.5906 65.4813C17.1792 67.565 20.4273 69.5361 23.8622 71.0989C25.6916 71.9296 25.928 72 26.7867 72C27.633 72 27.8819 71.9296 29.5246 71.1693C31.6901 70.1838 33.9799 68.9589 35.5356 67.9733C45.2551 61.7221 50.8554 52.3171 52.7221 39.1107C53.4688 33.8309 53.6555 29.1988 53.5435 18.8505C53.5407 18.576 53.538 18.3123 53.5355 18.059C53.4836 12.9212 53.4746 12.0273 53.0439 11.4455C52.9532 11.323 52.8438 11.2143 52.7113 11.0827C52.6828 11.0544 52.6532 11.025 52.6226 10.9942C52.0999 10.4874 51.9256 10.4451 49.5611 10.3325C41.086 9.95236 34.4653 7.02386 29.0144 1.29357C28.5788 0.828953 28.0437 0.336176 27.8197 0.209462C27.3094 -0.0721244 26.2143 -0.0721244 25.7289 0.223542ZM13.4368 21.6087L15.8173 19.445L26.7556 31.4794L37.6942 19.4447L40.0747 21.6084L28.9292 33.8707L35.605 41.2155L35.6022 41.2181L40.7336 42.4639L39.6592 48.0643L33.9822 48.6006L33.2305 43.3738L33.2246 43.3792L26.7556 36.262L20.2869 43.3789L20.2823 43.3746L19.5305 48.6025L13.8533 48.0662L12.7789 42.4658L17.9114 41.2197L17.9065 41.2152L24.5821 33.8707L20.2597 29.1152L16.6894 32.3604L10.7758 25.8543L13.2398 23.6147L14.1491 24.6151L15.2554 23.6095L13.4368 21.6087ZM14.6133 30.0753L16.2042 28.6292L17.1721 29.6941L15.5812 31.1401L14.6133 30.0753ZM40.7863 48.7527L41.6789 44.0997L42.7358 51.4489L35.5209 49.6973L40.2372 49.2517L40.6989 49.2081L40.7863 48.7527ZM39.3508 24.605L40.26 23.6047L42.7359 25.8551L36.8223 32.3612L33.2516 29.1157L38.2559 23.6099L39.3508 24.605ZM37.3072 28.6302L38.8981 30.0762L37.9303 31.1411L36.3393 29.695L37.3072 28.6302ZM11.8336 44.102L12.7262 48.7546L12.8136 49.2101L13.2753 49.2537L17.9916 49.6993L10.7768 51.4509L11.8336 44.102Z" fill="#273852"/>
</svg>
