<svg width="32" height="32" viewBox="0 0 32 32" fill="none" xmlns="http://www.w3.org/2000/svg">
<g clip-path="url(#clip0_841_1753)">
<circle cx="16" cy="16" r="16" transform="matrix(-1 0 0 1 32 0)" fill="#D9D9D9"/>
<circle cx="16" cy="16" r="16" transform="matrix(-1 0 0 1 32 0)" fill="#18D47A"/>
<circle cx="16" cy="16" r="16" transform="matrix(-1 0 0 1 32 0)" fill="url(#paint0_linear_841_1753)"/>
<circle cx="16" cy="16" r="15.2381" transform="matrix(-1 0 0 1 32 0)" stroke="white" stroke-width="1.52381"/>
<path fill-rule="evenodd" clip-rule="evenodd" d="M16.6971 28.7718L17.8448 18.4156L22.6746 14.5411L24.4355 16.5458L20.2723 20.1364L16.6971 28.7718Z" fill="white"/>
<path fill-rule="evenodd" clip-rule="evenodd" d="M14.1511 18.4156L15.2988 28.7718L11.6736 20.1364L7.56039 16.5458L9.32135 14.5411L14.1511 18.4156Z" fill="white"/>
<path d="M11.4064 24.8952L7.56039 16.5458L11.6736 20.1364L15.2988 28.7718L11.4064 24.8952Z" fill="url(#paint1_linear_841_1753)"/>
<path d="M20.5895 24.8952L16.6971 28.7718L20.2723 20.1364L24.4355 16.5458L20.5895 24.8952Z" fill="url(#paint2_linear_841_1753)"/>
<path fill-rule="evenodd" clip-rule="evenodd" d="M16.0002 3.26562L23.9958 11.6088L15.9958 16.5458L16.0002 3.26562Z" fill="white"/>
<path d="M8.0001 11.6088L16.0002 3.26562L15.9958 16.5458L8.0001 11.6088Z" fill="url(#paint3_linear_841_1753)"/>
<path d="M8.0001 11.6088L16.0002 3.26562M8.0001 11.6088L15.9958 16.5458M8.0001 11.6088V13.4923L9.32135 14.5411M16.0002 3.26562L23.9958 11.6088M16.0002 3.26562L15.9958 16.5458M15.9958 16.5458L23.9958 11.6088M23.9958 11.6088V13.5195L22.6746 14.5411M16.6971 28.7718L20.5895 24.8952L24.4355 16.5458M16.6971 28.7718L17.8448 18.4156L22.6746 14.5411M16.6971 28.7718L20.2723 20.1364L24.4355 16.5458M16.6971 28.7718H15.2988M24.4355 16.5458L22.6746 14.5411M15.2988 28.7718L14.1511 18.4156L9.32135 14.5411M15.2988 28.7718L11.4064 24.8952L7.56039 16.5458M15.2988 28.7718L11.6736 20.1364L7.56039 16.5458M9.32135 14.5411L7.56039 16.5458" stroke="white" stroke-width="0.272109"/>
</g>
<defs>
<linearGradient id="paint0_linear_841_1753" x1="6.46875" y1="4.6875" x2="26.375" y2="28" gradientUnits="userSpaceOnUse">
<stop stop-color="#18D47A"/>
<stop offset="1" stop-color="#00A28E"/>
</linearGradient>
<linearGradient id="paint1_linear_841_1753" x1="7.5648" y1="29.574" x2="7.97296" y2="17.9549" gradientUnits="userSpaceOnUse">
<stop stop-color="white"/>
<stop offset="1" stop-color="white" stop-opacity="0"/>
</linearGradient>
<linearGradient id="paint2_linear_841_1753" x1="21.8505" y1="18.5264" x2="16.49" y2="31.8597" gradientUnits="userSpaceOnUse">
<stop stop-color="white" stop-opacity="0"/>
<stop offset="1" stop-color="white"/>
</linearGradient>
<linearGradient id="paint3_linear_841_1753" x1="15.998" y1="3.26562" x2="8.16344" y2="17.5196" gradientUnits="userSpaceOnUse">
<stop stop-color="white" stop-opacity="0"/>
<stop offset="1" stop-color="white"/>
</linearGradient>
<clipPath id="clip0_841_1753">
<rect width="32" height="32" fill="white" transform="matrix(-1 0 0 1 32 0)"/>
</clipPath>
</defs>
</svg>
