<svg width="256" height="256" viewBox="0 0 256 256" fill="none" xmlns="http://www.w3.org/2000/svg">
<g clip-path="url(#clip0_841_1765)">
<circle cx="128" cy="128" r="128" transform="matrix(-1 0 0 1 256 0)" fill="#D9D9D9"/>
<circle cx="128" cy="128" r="128" transform="matrix(-1 0 0 1 256 0)" fill="#18D47A"/>
<circle cx="128" cy="128" r="128" transform="matrix(-1 0 0 1 256 0)" fill="url(#paint0_linear_841_1765)"/>
<circle cx="128" cy="128" r="121.905" transform="matrix(-1 0 0 1 256 0)" stroke="white" stroke-width="12.1905"/>
<path fill-rule="evenodd" clip-rule="evenodd" d="M133.575 230.175L142.757 147.325L181.395 116.328L195.482 132.367L162.176 161.091L133.575 230.175Z" fill="white"/>
<path fill-rule="evenodd" clip-rule="evenodd" d="M113.207 147.325L122.389 230.175L93.3872 161.091L60.4812 132.367L74.5689 116.328L113.207 147.325Z" fill="white"/>
<path d="M91.2496 199.162L60.4812 132.367L93.3872 161.091L122.389 230.175L91.2496 199.162Z" fill="url(#paint1_linear_841_1765)"/>
<path d="M164.714 199.162L133.575 230.175L162.176 161.091L195.482 132.367L164.714 199.162Z" fill="url(#paint2_linear_841_1765)"/>
<path fill-rule="evenodd" clip-rule="evenodd" d="M127.999 26.125L191.965 92.8702L127.964 132.367L127.999 26.125Z" fill="white"/>
<path d="M63.9989 92.8702L127.999 26.125L127.964 132.367L63.9989 92.8702Z" fill="url(#paint3_linear_841_1765)"/>
<path d="M63.9989 92.8702L127.999 26.125M63.9989 92.8702L127.964 132.367M63.9989 92.8702V107.939L74.5689 116.328M127.999 26.125L191.965 92.8702M127.999 26.125L127.964 132.367M127.964 132.367L191.965 92.8702M191.965 92.8702V108.156L181.395 116.328M133.575 230.175L164.714 199.162L195.482 132.367M133.575 230.175L142.757 147.325L181.395 116.328M133.575 230.175L162.176 161.091L195.482 132.367M133.575 230.175H122.389M195.482 132.367L181.395 116.328M122.389 230.175L113.207 147.325L74.5689 116.328M122.389 230.175L91.2496 199.162L60.4812 132.367M122.389 230.175L93.3872 161.091L60.4812 132.367M74.5689 116.328L60.4812 132.367" stroke="white" stroke-width="2.17687"/>
</g>
<defs>
<linearGradient id="paint0_linear_841_1765" x1="51.75" y1="37.5" x2="211" y2="224" gradientUnits="userSpaceOnUse">
<stop stop-color="#18D47A"/>
<stop offset="1" stop-color="#00A28E"/>
</linearGradient>
<linearGradient id="paint1_linear_841_1765" x1="60.5164" y1="236.592" x2="63.7817" y2="143.639" gradientUnits="userSpaceOnUse">
<stop stop-color="white"/>
<stop offset="1" stop-color="white" stop-opacity="0"/>
</linearGradient>
<linearGradient id="paint2_linear_841_1765" x1="174.802" y1="148.211" x2="131.918" y2="254.878" gradientUnits="userSpaceOnUse">
<stop stop-color="white" stop-opacity="0"/>
<stop offset="1" stop-color="white"/>
</linearGradient>
<linearGradient id="paint3_linear_841_1765" x1="127.982" y1="26.125" x2="65.3055" y2="140.156" gradientUnits="userSpaceOnUse">
<stop stop-color="white" stop-opacity="0"/>
<stop offset="1" stop-color="white"/>
</linearGradient>
<clipPath id="clip0_841_1765">
<rect width="256" height="256" fill="white" transform="matrix(-1 0 0 1 256 0)"/>
</clipPath>
</defs>
</svg>
