<svg width="256" height="256" viewBox="0 0 256 256" fill="none" xmlns="http://www.w3.org/2000/svg">
<rect x="6" y="6" width="244" height="244" rx="122" stroke="white" stroke-width="12"/>
<path fill-rule="evenodd" clip-rule="evenodd" d="M138.141 2.1157C138.141 0.947232 137.194 8.28095e-08 136.025 1.8496e-07L118.906 1.68152e-06C117.738 1.78367e-06 116.791 0.947234 116.791 2.1157L116.791 40.5845C116.791 41.753 115.844 42.7002 114.675 42.7002H96.317C95.7559 42.7002 95.2178 42.9231 94.821 43.3199L68.3052 69.8356C67.9085 70.2324 67.6855 70.7705 67.6855 71.3317V121.645C67.6855 123.517 69.9376 124.467 71.2781 123.16L88.3967 106.473C88.8053 106.075 89.0356 105.529 89.0356 104.958L89.0356 77.7367C89.0356 77.1756 89.2585 76.6374 89.6553 76.2407L101.226 64.67C101.623 64.2732 102.161 64.0503 102.722 64.0503L152.303 64.0503C152.808 64.0503 153.297 64.2309 153.68 64.5596L167.292 76.2271C167.761 76.629 168.031 77.2158 168.031 77.8334V82.2172C168.031 83.3856 168.978 84.3329 170.147 84.3329H177.83C178.391 84.3329 178.929 84.11 179.326 83.7132L187.694 75.345C188.091 74.9482 188.314 74.4101 188.314 73.849V69.1966C188.314 68.6355 188.091 68.0974 187.694 67.7006L162.246 42.2524C161.849 41.8556 161.311 41.6327 160.75 41.6327H140.257C139.088 41.6327 138.141 40.6854 138.141 39.517L138.141 2.1157ZM170.176 109.766C169.008 109.766 168.061 110.714 168.061 111.882V117.14C168.061 117.697 167.841 118.231 167.45 118.627L152.252 134.014C151.854 134.417 151.312 134.643 150.746 134.643H107.348C106.756 134.643 106.191 134.891 105.791 135.327L94.9317 147.132C94.5725 147.523 94.3732 148.034 94.3732 148.565V150.537C94.3732 151.706 95.3204 152.653 96.4889 152.653L160.75 152.653C161.311 152.653 161.849 152.43 162.246 152.033L187.694 126.585C188.091 126.188 188.314 125.65 188.314 125.089V120.25C188.314 119.689 188.091 119.151 187.694 118.754L179.326 110.386C178.929 109.989 178.391 109.766 177.83 109.766H170.176Z" fill="white"/>
<path d="M93.7535 110.386C94.1503 109.99 94.6884 109.767 95.2495 109.767L159.54 109.767C160.708 109.767 161.656 110.714 161.656 111.882V114.449C161.656 115.006 161.436 115.54 161.045 115.936L149.575 127.548C149.178 127.95 148.636 128.177 148.07 128.177H104.537C103.945 128.177 103.38 128.425 102.979 128.86L88.5267 144.574C88.1675 144.964 87.9681 145.475 87.9681 146.006V150.538C87.9681 151.706 87.0209 152.653 85.8524 152.653H78.1694C77.6083 152.653 77.0702 152.43 76.6734 152.034L68.3052 143.665C67.9085 143.269 67.6855 142.731 67.6855 142.169V137.331C67.6855 136.769 67.9085 136.231 68.3052 135.835L93.7535 110.386Z" fill="white"/>
<path fill-rule="evenodd" clip-rule="evenodd" d="M167.583 155.754C167.186 156.151 166.963 156.689 166.963 157.25V178.263C166.963 178.824 166.741 179.362 166.344 179.759L154.773 191.33C154.376 191.727 153.838 191.949 153.277 191.949H103.696C103.191 191.949 102.702 191.769 102.319 191.44L88.707 179.773C88.238 179.371 87.9681 178.784 87.9681 178.166V173.783C87.9681 172.614 87.0209 171.667 85.8524 171.667H78.1694C77.6083 171.667 77.0702 171.89 76.6734 172.287L68.3052 180.655C67.9085 181.052 67.6855 181.59 67.6855 182.151V186.803C67.6855 187.364 67.9085 187.902 68.3052 188.299L93.7535 213.747C94.1503 214.144 94.6884 214.367 95.2495 214.367H115.743C116.911 214.367 117.858 215.314 117.858 216.483V253.884C117.858 255.052 118.806 256 119.974 256H137.093C138.261 256 139.208 255.052 139.208 253.884V215.415C139.208 214.247 140.156 213.3 141.324 213.3H159.682C160.243 213.3 160.781 213.077 161.178 212.68L187.694 186.164C188.091 185.767 188.314 185.229 188.314 184.668V140.131C188.314 138.246 186.035 137.302 184.702 138.635L167.583 155.754Z" fill="white"/>
</svg>
