<svg width="72" height="72" viewBox="0 0 72 72" fill="none" xmlns="http://www.w3.org/2000/svg">
<rect x="1.6875" y="1.6875" width="68.625" height="68.625" rx="34.3125" stroke="white" stroke-width="3.375"/>
<path fill-rule="evenodd" clip-rule="evenodd" d="M38.8517 0.595041C38.8517 0.266409 38.5853 2.32902e-08 38.2566 5.20202e-08L33.442 4.72929e-07C33.1134 5.01658e-07 32.847 0.26641 32.847 0.595042L32.847 11.4144C32.847 11.743 32.5806 12.0094 32.2519 12.0094H27.0887C26.9309 12.0094 26.7796 12.0721 26.668 12.1837L19.2104 19.6413C19.0988 19.7529 19.0361 19.9042 19.0361 20.062V34.2127C19.0361 34.7392 19.6695 35.0063 20.0465 34.6388L24.8612 29.9456C24.9761 29.8336 25.0408 29.68 25.0408 29.5195L25.0408 21.8634C25.0408 21.7056 25.1035 21.5543 25.2151 21.4427L28.4694 18.1884C28.581 18.0768 28.7323 18.0141 28.8901 18.0141H42.8349C42.9769 18.0141 43.1143 18.065 43.2221 18.1574L47.0505 21.4389C47.1824 21.5519 47.2583 21.7169 47.2583 21.8906V23.1236C47.2583 23.4522 47.5247 23.7186 47.8533 23.7186H50.0142C50.172 23.7186 50.3233 23.6559 50.4349 23.5443L52.7885 21.1908C52.9001 21.0792 52.9628 20.9278 52.9628 20.77V19.4616C52.9628 19.3037 52.9001 19.1524 52.7885 19.0408L45.6312 11.8835C45.5196 11.7719 45.3682 11.7092 45.2104 11.7092H39.4467C39.1181 11.7092 38.8517 11.4428 38.8517 11.1142L38.8517 0.595041ZM47.8617 30.8718C47.533 30.8718 47.2666 31.1382 47.2666 31.4669V32.9457C47.2666 33.1023 47.2049 33.2525 47.0949 33.3639L42.8203 37.6915C42.7085 37.8047 42.5561 37.8684 42.397 37.8684H30.1911C30.0247 37.8684 29.8658 37.9381 29.7532 38.0606L26.6991 41.381C26.5981 41.4908 26.542 41.6346 26.542 41.7838V42.3387C26.542 42.6673 26.8084 42.9337 27.1371 42.9337L45.2104 42.9337C45.3682 42.9337 45.5196 42.871 45.6312 42.7594L52.7885 35.6021C52.9001 35.4905 52.9628 35.3391 52.9628 35.1813V33.8204C52.9628 33.6626 52.9001 33.5112 52.7885 33.3997L50.4349 31.0461C50.3233 30.9345 50.172 30.8718 50.0142 30.8718H47.8617Z" fill="white"/>
<path d="M26.3677 31.0464C26.4793 30.9348 26.6307 30.8721 26.7885 30.8721L44.8702 30.8721C45.1988 30.8721 45.4652 31.1385 45.4652 31.4671V32.189C45.4652 32.3456 45.4035 32.4958 45.2935 32.6072L42.0676 35.8731C41.9559 35.9862 41.8034 36.0499 41.6443 36.0499H29.4005C29.234 36.0499 29.0752 36.1197 28.9625 36.2422L24.8977 40.6615C24.7967 40.7714 24.7406 40.9151 24.7406 41.0643V42.3389C24.7406 42.6675 24.4742 42.934 24.1456 42.934H21.9847C21.8269 42.934 21.6756 42.8713 21.564 42.7597L19.2104 40.4061C19.0988 40.2945 19.0361 40.1432 19.0361 39.9854V38.6244C19.0361 38.4666 19.0988 38.3153 19.2104 38.2037L26.3677 31.0464Z" fill="white"/>
<path fill-rule="evenodd" clip-rule="evenodd" d="M47.1323 43.806C47.0207 43.9176 46.9581 44.069 46.9581 44.2268V50.1367C46.9581 50.2945 46.8954 50.4459 46.7838 50.5575L43.5295 53.8117C43.4179 53.9233 43.2666 53.986 43.1088 53.986H29.164C29.022 53.986 28.8846 53.9352 28.7768 53.8428L24.9484 50.5613C24.8165 50.4483 24.7406 50.2832 24.7406 50.1095V48.8766C24.7406 48.548 24.4742 48.2815 24.1456 48.2815H21.9847C21.8269 48.2815 21.6756 48.3442 21.564 48.4558L19.2104 50.8094C19.0988 50.921 19.0361 51.0723 19.0361 51.2301V52.5386C19.0361 52.6964 19.0988 52.8478 19.2104 52.9594L26.3677 60.1167C26.4793 60.2283 26.6307 60.291 26.7885 60.291H32.5522C32.8808 60.291 33.1472 60.5574 33.1472 60.886V71.4051C33.1472 71.7338 33.4136 72.0002 33.7423 72.0002H38.5569C38.8855 72.0002 39.1519 71.7338 39.1519 71.4051V60.5858C39.1519 60.2572 39.4183 59.9907 39.747 59.9907H44.9102C45.068 59.9907 45.2193 59.9281 45.3309 59.8165L52.7885 52.3589C52.9001 52.2473 52.9628 52.096 52.9628 51.9381V39.4121C52.9628 38.882 52.3218 38.6165 51.947 38.9914L47.1323 43.806Z" fill="white"/>
</svg>
